<?xml version="1.0" encoding="utf-8" standalone="no"?>
<!DOCTYPE svg PUBLIC "-//W3C//DTD SVG 1.1//EN"
  "http://www.w3.org/Graphics/SVG/1.1/DTD/svg11.dtd">
<svg xmlns:xlink="http://www.w3.org/1999/xlink" width="712.295344pt" height="605.054438pt" viewBox="0 0 712.295344 605.054438" xmlns="http://www.w3.org/2000/svg" version="1.1">
 <metadata>
  <rdf:RDF xmlns:dc="http://purl.org/dc/elements/1.1/" xmlns:cc="http://creativecommons.org/ns#" xmlns:rdf="http://www.w3.org/1999/02/22-rdf-syntax-ns#">
   <cc:Work>
    <dc:type rdf:resource="http://purl.org/dc/dcmitype/StillImage"/>
    <dc:date>2026-05-13T21:22:48.657746</dc:date>
    <dc:format>image/svg+xml</dc:format>
    <dc:creator>
     <cc:Agent>
      <dc:title>Matplotlib v3.10.9, https://matplotlib.org/</dc:title>
     </cc:Agent>
    </dc:creator>
   </cc:Work>
  </rdf:RDF>
 </metadata>
 <defs>
  <style type="text/css">*{stroke-linejoin: round; stroke-linecap: butt}</style>
 </defs>
 <g id="figure_1">
  <g id="patch_1">
   <path d="M 0 605.054438 
L 712.295344 605.054438 
L 712.295344 0 
L 0 0 
z
" style="fill: #ffffff"/>
  </g>
  <g id="axes_1">
   <g id="patch_2">
    <path d="M 101.1125 114.642438 
L 697.648515 114.642438 
L 697.648515 18.798437 
L 101.1125 18.798437 
z
" style="fill: #ffffff"/>
   </g>
   <g id="patch_3">
    <path d="M 101.1125 23.154983 
L 578.341312 23.154983 
L 578.341312 40.581165 
L 101.1125 40.581165 
z
" clip-path="url(#p63f23db1b5)" style="fill: #1f77b4"/>
   </g>
   <g id="patch_4">
    <path d="M 101.1125 58.007347 
L 201.922354 58.007347 
L 201.922354 75.433528 
L 101.1125 75.433528 
z
" clip-path="url(#p63f23db1b5)" style="fill: #ff7f0e"/>
   </g>
   <g id="patch_5">
    <path d="M 101.1125 92.85971 
L 125.079212 92.85971 
L 125.079212 110.285892 
L 101.1125 110.285892 
z
" clip-path="url(#p63f23db1b5)" style="fill: #2ca02c"/>
   </g>
   <g id="matplotlib.axis_1">
    <g id="xtick_1">
     <g id="line2d_1">
      <defs>
       <path id="m27fb2324c4" d="M 0 0 
L 0 3.5 
" style="stroke: #000000; stroke-width: 0.8"/>
      </defs>
      <g>
       <use xlink:href="#m27fb2324c4" x="101.1125" y="114.642438" style="stroke: #000000; stroke-width: 0.8"/>
      </g>
     </g>
     <g id="text_1">
      <!-- 0 -->
      <g transform="translate(98.5675 127.721188) scale(0.08 -0.08)">
       <defs>
        <path id="DejaVuSans-30" d="M 2034 4250 
Q 1547 4250 1301 3770 
Q 1056 3291 1056 2328 
Q 1056 1369 1301 889 
Q 1547 409 2034 409 
Q 2525 409 2770 889 
Q 3016 1369 3016 2328 
Q 3016 3291 2770 3770 
Q 2525 4250 2034 4250 
z
M 2034 4750 
Q 2819 4750 3233 4129 
Q 3647 3509 3647 2328 
Q 3647 1150 3233 529 
Q 2819 -91 2034 -91 
Q 1250 -91 836 529 
Q 422 1150 422 2328 
Q 422 3509 836 4129 
Q 1250 4750 2034 4750 
z
" transform="scale(0.015625)"/>
       </defs>
       <use xlink:href="#DejaVuSans-30"/>
      </g>
     </g>
    </g>
    <g id="xtick_2">
     <g id="line2d_2">
      <g>
       <use xlink:href="#m27fb2324c4" x="180.618088" y="114.642438" style="stroke: #000000; stroke-width: 0.8"/>
      </g>
     </g>
     <g id="text_2">
      <!-- 200 -->
      <g transform="translate(172.983088 127.721188) scale(0.08 -0.08)">
       <defs>
        <path id="DejaVuSans-32" d="M 1228 531 
L 3431 531 
L 3431 0 
L 469 0 
L 469 531 
Q 828 903 1448 1529 
Q 2069 2156 2228 2338 
Q 2531 2678 2651 2914 
Q 2772 3150 2772 3378 
Q 2772 3750 2511 3984 
Q 2250 4219 1831 4219 
Q 1534 4219 1204 4116 
Q 875 4013 500 3803 
L 500 4441 
Q 881 4594 1212 4672 
Q 1544 4750 1819 4750 
Q 2544 4750 2975 4387 
Q 3406 4025 3406 3419 
Q 3406 3131 3298 2873 
Q 3191 2616 2906 2266 
Q 2828 2175 2409 1742 
Q 1991 1309 1228 531 
z
" transform="scale(0.015625)"/>
       </defs>
       <use xlink:href="#DejaVuSans-32"/>
       <use xlink:href="#DejaVuSans-30" transform="translate(63.623047 0)"/>
       <use xlink:href="#DejaVuSans-30" transform="translate(127.246094 0)"/>
      </g>
     </g>
    </g>
    <g id="xtick_3">
     <g id="line2d_3">
      <g>
       <use xlink:href="#m27fb2324c4" x="260.123675" y="114.642438" style="stroke: #000000; stroke-width: 0.8"/>
      </g>
     </g>
     <g id="text_3">
      <!-- 400 -->
      <g transform="translate(252.488675 127.721188) scale(0.08 -0.08)">
       <defs>
        <path id="DejaVuSans-34" d="M 2419 4116 
L 825 1625 
L 2419 1625 
L 2419 4116 
z
M 2253 4666 
L 3047 4666 
L 3047 1625 
L 3713 1625 
L 3713 1100 
L 3047 1100 
L 3047 0 
L 2419 0 
L 2419 1100 
L 313 1100 
L 313 1709 
L 2253 4666 
z
" transform="scale(0.015625)"/>
       </defs>
       <use xlink:href="#DejaVuSans-34"/>
       <use xlink:href="#DejaVuSans-30" transform="translate(63.623047 0)"/>
       <use xlink:href="#DejaVuSans-30" transform="translate(127.246094 0)"/>
      </g>
     </g>
    </g>
    <g id="xtick_4">
     <g id="line2d_4">
      <g>
       <use xlink:href="#m27fb2324c4" x="339.629263" y="114.642438" style="stroke: #000000; stroke-width: 0.8"/>
      </g>
     </g>
     <g id="text_4">
      <!-- 600 -->
      <g transform="translate(331.994263 127.721188) scale(0.08 -0.08)">
       <defs>
        <path id="DejaVuSans-36" d="M 2113 2584 
Q 1688 2584 1439 2293 
Q 1191 2003 1191 1497 
Q 1191 994 1439 701 
Q 1688 409 2113 409 
Q 2538 409 2786 701 
Q 3034 994 3034 1497 
Q 3034 2003 2786 2293 
Q 2538 2584 2113 2584 
z
M 3366 4563 
L 3366 3988 
Q 3128 4100 2886 4159 
Q 2644 4219 2406 4219 
Q 1781 4219 1451 3797 
Q 1122 3375 1075 2522 
Q 1259 2794 1537 2939 
Q 1816 3084 2150 3084 
Q 2853 3084 3261 2657 
Q 3669 2231 3669 1497 
Q 3669 778 3244 343 
Q 2819 -91 2113 -91 
Q 1303 -91 875 529 
Q 447 1150 447 2328 
Q 447 3434 972 4092 
Q 1497 4750 2381 4750 
Q 2619 4750 2861 4703 
Q 3103 4656 3366 4563 
z
" transform="scale(0.015625)"/>
       </defs>
       <use xlink:href="#DejaVuSans-36"/>
       <use xlink:href="#DejaVuSans-30" transform="translate(63.623047 0)"/>
       <use xlink:href="#DejaVuSans-30" transform="translate(127.246094 0)"/>
      </g>
     </g>
    </g>
    <g id="xtick_5">
     <g id="line2d_5">
      <g>
       <use xlink:href="#m27fb2324c4" x="419.134851" y="114.642438" style="stroke: #000000; stroke-width: 0.8"/>
      </g>
     </g>
     <g id="text_5">
      <!-- 800 -->
      <g transform="translate(411.499851 127.721188) scale(0.08 -0.08)">
       <defs>
        <path id="DejaVuSans-38" d="M 2034 2216 
Q 1584 2216 1326 1975 
Q 1069 1734 1069 1313 
Q 1069 891 1326 650 
Q 1584 409 2034 409 
Q 2484 409 2743 651 
Q 3003 894 3003 1313 
Q 3003 1734 2745 1975 
Q 2488 2216 2034 2216 
z
M 1403 2484 
Q 997 2584 770 2862 
Q 544 3141 544 3541 
Q 544 4100 942 4425 
Q 1341 4750 2034 4750 
Q 2731 4750 3128 4425 
Q 3525 4100 3525 3541 
Q 3525 3141 3298 2862 
Q 3072 2584 2669 2484 
Q 3125 2378 3379 2068 
Q 3634 1759 3634 1313 
Q 3634 634 3220 271 
Q 2806 -91 2034 -91 
Q 1263 -91 848 271 
Q 434 634 434 1313 
Q 434 1759 690 2068 
Q 947 2378 1403 2484 
z
M 1172 3481 
Q 1172 3119 1398 2916 
Q 1625 2713 2034 2713 
Q 2441 2713 2670 2916 
Q 2900 3119 2900 3481 
Q 2900 3844 2670 4047 
Q 2441 4250 2034 4250 
Q 1625 4250 1398 4047 
Q 1172 3844 1172 3481 
z
" transform="scale(0.015625)"/>
       </defs>
       <use xlink:href="#DejaVuSans-38"/>
       <use xlink:href="#DejaVuSans-30" transform="translate(63.623047 0)"/>
       <use xlink:href="#DejaVuSans-30" transform="translate(127.246094 0)"/>
      </g>
     </g>
    </g>
    <g id="xtick_6">
     <g id="line2d_6">
      <g>
       <use xlink:href="#m27fb2324c4" x="498.640438" y="114.642438" style="stroke: #000000; stroke-width: 0.8"/>
      </g>
     </g>
     <g id="text_6">
      <!-- 1000 -->
      <g transform="translate(488.460438 127.721188) scale(0.08 -0.08)">
       <defs>
        <path id="DejaVuSans-31" d="M 794 531 
L 1825 531 
L 1825 4091 
L 703 3866 
L 703 4441 
L 1819 4666 
L 2450 4666 
L 2450 531 
L 3481 531 
L 3481 0 
L 794 0 
L 794 531 
z
" transform="scale(0.015625)"/>
       </defs>
       <use xlink:href="#DejaVuSans-31"/>
       <use xlink:href="#DejaVuSans-30" transform="translate(63.623047 0)"/>
       <use xlink:href="#DejaVuSans-30" transform="translate(127.246094 0)"/>
       <use xlink:href="#DejaVuSans-30" transform="translate(190.869141 0)"/>
      </g>
     </g>
    </g>
    <g id="xtick_7">
     <g id="line2d_7">
      <g>
       <use xlink:href="#m27fb2324c4" x="578.146026" y="114.642438" style="stroke: #000000; stroke-width: 0.8"/>
      </g>
     </g>
     <g id="text_7">
      <!-- 1200 -->
      <g transform="translate(567.966026 127.721188) scale(0.08 -0.08)">
       <use xlink:href="#DejaVuSans-31"/>
       <use xlink:href="#DejaVuSans-32" transform="translate(63.623047 0)"/>
       <use xlink:href="#DejaVuSans-30" transform="translate(127.246094 0)"/>
       <use xlink:href="#DejaVuSans-30" transform="translate(190.869141 0)"/>
      </g>
     </g>
    </g>
    <g id="xtick_8">
     <g id="line2d_8">
      <g>
       <use xlink:href="#m27fb2324c4" x="657.651614" y="114.642438" style="stroke: #000000; stroke-width: 0.8"/>
      </g>
     </g>
     <g id="text_8">
      <!-- 1400 -->
      <g transform="translate(647.471614 127.721188) scale(0.08 -0.08)">
       <use xlink:href="#DejaVuSans-31"/>
       <use xlink:href="#DejaVuSans-34" transform="translate(63.623047 0)"/>
       <use xlink:href="#DejaVuSans-30" transform="translate(127.246094 0)"/>
       <use xlink:href="#DejaVuSans-30" transform="translate(190.869141 0)"/>
      </g>
     </g>
    </g>
    <g id="text_9">
     <!-- median time (ns) -->
     <g transform="translate(365.066757 139.463688) scale(0.08 -0.08)">
      <defs>
       <path id="DejaVuSans-6d" d="M 3328 2828 
Q 3544 3216 3844 3400 
Q 4144 3584 4550 3584 
Q 5097 3584 5394 3201 
Q 5691 2819 5691 2113 
L 5691 0 
L 5113 0 
L 5113 2094 
Q 5113 2597 4934 2840 
Q 4756 3084 4391 3084 
Q 3944 3084 3684 2787 
Q 3425 2491 3425 1978 
L 3425 0 
L 2847 0 
L 2847 2094 
Q 2847 2600 2669 2842 
Q 2491 3084 2119 3084 
Q 1678 3084 1418 2786 
Q 1159 2488 1159 1978 
L 1159 0 
L 581 0 
L 581 3500 
L 1159 3500 
L 1159 2956 
Q 1356 3278 1631 3431 
Q 1906 3584 2284 3584 
Q 2666 3584 2933 3390 
Q 3200 3197 3328 2828 
z
" transform="scale(0.015625)"/>
       <path id="DejaVuSans-65" d="M 3597 1894 
L 3597 1613 
L 953 1613 
Q 991 1019 1311 708 
Q 1631 397 2203 397 
Q 2534 397 2845 478 
Q 3156 559 3463 722 
L 3463 178 
Q 3153 47 2828 -22 
Q 2503 -91 2169 -91 
Q 1331 -91 842 396 
Q 353 884 353 1716 
Q 353 2575 817 3079 
Q 1281 3584 2069 3584 
Q 2775 3584 3186 3129 
Q 3597 2675 3597 1894 
z
M 3022 2063 
Q 3016 2534 2758 2815 
Q 2500 3097 2075 3097 
Q 1594 3097 1305 2825 
Q 1016 2553 972 2059 
L 3022 2063 
z
" transform="scale(0.015625)"/>
       <path id="DejaVuSans-64" d="M 2906 2969 
L 2906 4863 
L 3481 4863 
L 3481 0 
L 2906 0 
L 2906 525 
Q 2725 213 2448 61 
Q 2172 -91 1784 -91 
Q 1150 -91 751 415 
Q 353 922 353 1747 
Q 353 2572 751 3078 
Q 1150 3584 1784 3584 
Q 2172 3584 2448 3432 
Q 2725 3281 2906 2969 
z
M 947 1747 
Q 947 1113 1208 752 
Q 1469 391 1925 391 
Q 2381 391 2643 752 
Q 2906 1113 2906 1747 
Q 2906 2381 2643 2742 
Q 2381 3103 1925 3103 
Q 1469 3103 1208 2742 
Q 947 2381 947 1747 
z
" transform="scale(0.015625)"/>
       <path id="DejaVuSans-69" d="M 603 3500 
L 1178 3500 
L 1178 0 
L 603 0 
L 603 3500 
z
M 603 4863 
L 1178 4863 
L 1178 4134 
L 603 4134 
L 603 4863 
z
" transform="scale(0.015625)"/>
       <path id="DejaVuSans-61" d="M 2194 1759 
Q 1497 1759 1228 1600 
Q 959 1441 959 1056 
Q 959 750 1161 570 
Q 1363 391 1709 391 
Q 2188 391 2477 730 
Q 2766 1069 2766 1631 
L 2766 1759 
L 2194 1759 
z
M 3341 1997 
L 3341 0 
L 2766 0 
L 2766 531 
Q 2569 213 2275 61 
Q 1981 -91 1556 -91 
Q 1019 -91 701 211 
Q 384 513 384 1019 
Q 384 1609 779 1909 
Q 1175 2209 1959 2209 
L 2766 2209 
L 2766 2266 
Q 2766 2663 2505 2880 
Q 2244 3097 1772 3097 
Q 1472 3097 1187 3025 
Q 903 2953 641 2809 
L 641 3341 
Q 956 3463 1253 3523 
Q 1550 3584 1831 3584 
Q 2591 3584 2966 3190 
Q 3341 2797 3341 1997 
z
" transform="scale(0.015625)"/>
       <path id="DejaVuSans-6e" d="M 3513 2113 
L 3513 0 
L 2938 0 
L 2938 2094 
Q 2938 2591 2744 2837 
Q 2550 3084 2163 3084 
Q 1697 3084 1428 2787 
Q 1159 2491 1159 1978 
L 1159 0 
L 581 0 
L 581 3500 
L 1159 3500 
L 1159 2956 
Q 1366 3272 1645 3428 
Q 1925 3584 2291 3584 
Q 2894 3584 3203 3211 
Q 3513 2838 3513 2113 
z
" transform="scale(0.015625)"/>
       <path id="DejaVuSans-20" transform="scale(0.015625)"/>
       <path id="DejaVuSans-74" d="M 1172 4494 
L 1172 3500 
L 2356 3500 
L 2356 3053 
L 1172 3053 
L 1172 1153 
Q 1172 725 1289 603 
Q 1406 481 1766 481 
L 2356 481 
L 2356 0 
L 1766 0 
Q 1100 0 847 248 
Q 594 497 594 1153 
L 594 3053 
L 172 3053 
L 172 3500 
L 594 3500 
L 594 4494 
L 1172 4494 
z
" transform="scale(0.015625)"/>
       <path id="DejaVuSans-28" d="M 1984 4856 
Q 1566 4138 1362 3434 
Q 1159 2731 1159 2009 
Q 1159 1288 1364 580 
Q 1569 -128 1984 -844 
L 1484 -844 
Q 1016 -109 783 600 
Q 550 1309 550 2009 
Q 550 2706 781 3412 
Q 1013 4119 1484 4856 
L 1984 4856 
z
" transform="scale(0.015625)"/>
       <path id="DejaVuSans-73" d="M 2834 3397 
L 2834 2853 
Q 2591 2978 2328 3040 
Q 2066 3103 1784 3103 
Q 1356 3103 1142 2972 
Q 928 2841 928 2578 
Q 928 2378 1081 2264 
Q 1234 2150 1697 2047 
L 1894 2003 
Q 2506 1872 2764 1633 
Q 3022 1394 3022 966 
Q 3022 478 2636 193 
Q 2250 -91 1575 -91 
Q 1294 -91 989 -36 
Q 684 19 347 128 
L 347 722 
Q 666 556 975 473 
Q 1284 391 1588 391 
Q 1994 391 2212 530 
Q 2431 669 2431 922 
Q 2431 1156 2273 1281 
Q 2116 1406 1581 1522 
L 1381 1569 
Q 847 1681 609 1914 
Q 372 2147 372 2553 
Q 372 3047 722 3315 
Q 1072 3584 1716 3584 
Q 2034 3584 2315 3537 
Q 2597 3491 2834 3397 
z
" transform="scale(0.015625)"/>
       <path id="DejaVuSans-29" d="M 513 4856 
L 1013 4856 
Q 1481 4119 1714 3412 
Q 1947 2706 1947 2009 
Q 1947 1309 1714 600 
Q 1481 -109 1013 -844 
L 513 -844 
Q 928 -128 1133 580 
Q 1338 1288 1338 2009 
Q 1338 2731 1133 3434 
Q 928 4138 513 4856 
z
" transform="scale(0.015625)"/>
      </defs>
      <use xlink:href="#DejaVuSans-6d"/>
      <use xlink:href="#DejaVuSans-65" transform="translate(97.412109 0)"/>
      <use xlink:href="#DejaVuSans-64" transform="translate(158.935547 0)"/>
      <use xlink:href="#DejaVuSans-69" transform="translate(222.412109 0)"/>
      <use xlink:href="#DejaVuSans-61" transform="translate(250.195312 0)"/>
      <use xlink:href="#DejaVuSans-6e" transform="translate(311.474609 0)"/>
      <use xlink:href="#DejaVuSans-20" transform="translate(374.853516 0)"/>
      <use xlink:href="#DejaVuSans-74" transform="translate(406.640625 0)"/>
      <use xlink:href="#DejaVuSans-69" transform="translate(445.849609 0)"/>
      <use xlink:href="#DejaVuSans-6d" transform="translate(473.632812 0)"/>
      <use xlink:href="#DejaVuSans-65" transform="translate(571.044922 0)"/>
      <use xlink:href="#DejaVuSans-20" transform="translate(632.568359 0)"/>
      <use xlink:href="#DejaVuSans-28" transform="translate(664.355469 0)"/>
      <use xlink:href="#DejaVuSans-6e" transform="translate(703.369141 0)"/>
      <use xlink:href="#DejaVuSans-73" transform="translate(766.748047 0)"/>
      <use xlink:href="#DejaVuSans-29" transform="translate(818.847656 0)"/>
     </g>
    </g>
   </g>
   <g id="matplotlib.axis_2">
    <g id="ytick_1">
     <g id="line2d_9">
      <defs>
       <path id="m42e42a087f" d="M 0 0 
L -3.5 0 
" style="stroke: #000000; stroke-width: 0.8"/>
      </defs>
      <g>
       <use xlink:href="#m42e42a087f" x="101.1125" y="31.868074" style="stroke: #000000; stroke-width: 0.8"/>
      </g>
     </g>
     <g id="text_10">
      <!-- stdlib_uuid4 -->
      <g transform="translate(45.675 34.907449) scale(0.08 -0.08)">
       <defs>
        <path id="DejaVuSans-6c" d="M 603 4863 
L 1178 4863 
L 1178 0 
L 603 0 
L 603 4863 
z
" transform="scale(0.015625)"/>
        <path id="DejaVuSans-62" d="M 3116 1747 
Q 3116 2381 2855 2742 
Q 2594 3103 2138 3103 
Q 1681 3103 1420 2742 
Q 1159 2381 1159 1747 
Q 1159 1113 1420 752 
Q 1681 391 2138 391 
Q 2594 391 2855 752 
Q 3116 1113 3116 1747 
z
M 1159 2969 
Q 1341 3281 1617 3432 
Q 1894 3584 2278 3584 
Q 2916 3584 3314 3078 
Q 3713 2572 3713 1747 
Q 3713 922 3314 415 
Q 2916 -91 2278 -91 
Q 1894 -91 1617 61 
Q 1341 213 1159 525 
L 1159 0 
L 581 0 
L 581 4863 
L 1159 4863 
L 1159 2969 
z
" transform="scale(0.015625)"/>
        <path id="DejaVuSans-5f" d="M 3263 -1063 
L 3263 -1509 
L -63 -1509 
L -63 -1063 
L 3263 -1063 
z
" transform="scale(0.015625)"/>
        <path id="DejaVuSans-75" d="M 544 1381 
L 544 3500 
L 1119 3500 
L 1119 1403 
Q 1119 906 1312 657 
Q 1506 409 1894 409 
Q 2359 409 2629 706 
Q 2900 1003 2900 1516 
L 2900 3500 
L 3475 3500 
L 3475 0 
L 2900 0 
L 2900 538 
Q 2691 219 2414 64 
Q 2138 -91 1772 -91 
Q 1169 -91 856 284 
Q 544 659 544 1381 
z
M 1991 3584 
L 1991 3584 
z
" transform="scale(0.015625)"/>
       </defs>
       <use xlink:href="#DejaVuSans-73"/>
       <use xlink:href="#DejaVuSans-74" transform="translate(52.099609 0)"/>
       <use xlink:href="#DejaVuSans-64" transform="translate(91.308594 0)"/>
       <use xlink:href="#DejaVuSans-6c" transform="translate(154.785156 0)"/>
       <use xlink:href="#DejaVuSans-69" transform="translate(182.568359 0)"/>
       <use xlink:href="#DejaVuSans-62" transform="translate(210.351562 0)"/>
       <use xlink:href="#DejaVuSans-5f" transform="translate(273.828125 0)"/>
       <use xlink:href="#DejaVuSans-75" transform="translate(323.828125 0)"/>
       <use xlink:href="#DejaVuSans-75" transform="translate(387.207031 0)"/>
       <use xlink:href="#DejaVuSans-69" transform="translate(450.585938 0)"/>
       <use xlink:href="#DejaVuSans-64" transform="translate(478.369141 0)"/>
       <use xlink:href="#DejaVuSans-34" transform="translate(541.845703 0)"/>
      </g>
     </g>
    </g>
    <g id="ytick_2">
     <g id="line2d_10">
      <g>
       <use xlink:href="#m42e42a087f" x="101.1125" y="66.720438" style="stroke: #000000; stroke-width: 0.8"/>
      </g>
     </g>
     <g id="text_11">
      <!-- compat_uuid4 -->
      <g transform="translate(37.3775 69.759812) scale(0.08 -0.08)">
       <defs>
        <path id="DejaVuSans-63" d="M 3122 3366 
L 3122 2828 
Q 2878 2963 2633 3030 
Q 2388 3097 2138 3097 
Q 1578 3097 1268 2742 
Q 959 2388 959 1747 
Q 959 1106 1268 751 
Q 1578 397 2138 397 
Q 2388 397 2633 464 
Q 2878 531 3122 666 
L 3122 134 
Q 2881 22 2623 -34 
Q 2366 -91 2075 -91 
Q 1284 -91 818 406 
Q 353 903 353 1747 
Q 353 2603 823 3093 
Q 1294 3584 2113 3584 
Q 2378 3584 2631 3529 
Q 2884 3475 3122 3366 
z
" transform="scale(0.015625)"/>
        <path id="DejaVuSans-6f" d="M 1959 3097 
Q 1497 3097 1228 2736 
Q 959 2375 959 1747 
Q 959 1119 1226 758 
Q 1494 397 1959 397 
Q 2419 397 2687 759 
Q 2956 1122 2956 1747 
Q 2956 2369 2687 2733 
Q 2419 3097 1959 3097 
z
M 1959 3584 
Q 2709 3584 3137 3096 
Q 3566 2609 3566 1747 
Q 3566 888 3137 398 
Q 2709 -91 1959 -91 
Q 1206 -91 779 398 
Q 353 888 353 1747 
Q 353 2609 779 3096 
Q 1206 3584 1959 3584 
z
" transform="scale(0.015625)"/>
        <path id="DejaVuSans-70" d="M 1159 525 
L 1159 -1331 
L 581 -1331 
L 581 3500 
L 1159 3500 
L 1159 2969 
Q 1341 3281 1617 3432 
Q 1894 3584 2278 3584 
Q 2916 3584 3314 3078 
Q 3713 2572 3713 1747 
Q 3713 922 3314 415 
Q 2916 -91 2278 -91 
Q 1894 -91 1617 61 
Q 1341 213 1159 525 
z
M 3116 1747 
Q 3116 2381 2855 2742 
Q 2594 3103 2138 3103 
Q 1681 3103 1420 2742 
Q 1159 2381 1159 1747 
Q 1159 1113 1420 752 
Q 1681 391 2138 391 
Q 2594 391 2855 752 
Q 3116 1113 3116 1747 
z
" transform="scale(0.015625)"/>
       </defs>
       <use xlink:href="#DejaVuSans-63"/>
       <use xlink:href="#DejaVuSans-6f" transform="translate(54.980469 0)"/>
       <use xlink:href="#DejaVuSans-6d" transform="translate(116.162109 0)"/>
       <use xlink:href="#DejaVuSans-70" transform="translate(213.574219 0)"/>
       <use xlink:href="#DejaVuSans-61" transform="translate(277.050781 0)"/>
       <use xlink:href="#DejaVuSans-74" transform="translate(338.330078 0)"/>
       <use xlink:href="#DejaVuSans-5f" transform="translate(377.539062 0)"/>
       <use xlink:href="#DejaVuSans-75" transform="translate(427.539062 0)"/>
       <use xlink:href="#DejaVuSans-75" transform="translate(490.917969 0)"/>
       <use xlink:href="#DejaVuSans-69" transform="translate(554.296875 0)"/>
       <use xlink:href="#DejaVuSans-64" transform="translate(582.080078 0)"/>
       <use xlink:href="#DejaVuSans-34" transform="translate(645.556641 0)"/>
      </g>
     </g>
    </g>
    <g id="ytick_3">
     <g id="line2d_11">
      <g>
       <use xlink:href="#m42e42a087f" x="101.1125" y="101.572801" style="stroke: #000000; stroke-width: 0.8"/>
      </g>
     </g>
     <g id="text_12">
      <!-- uuid_utils_uuid4 -->
      <g transform="translate(29.32125 104.612176) scale(0.08 -0.08)">
       <use xlink:href="#DejaVuSans-75"/>
       <use xlink:href="#DejaVuSans-75" transform="translate(63.378906 0)"/>
       <use xlink:href="#DejaVuSans-69" transform="translate(126.757812 0)"/>
       <use xlink:href="#DejaVuSans-64" transform="translate(154.541016 0)"/>
       <use xlink:href="#DejaVuSans-5f" transform="translate(218.017578 0)"/>
       <use xlink:href="#DejaVuSans-75" transform="translate(268.017578 0)"/>
       <use xlink:href="#DejaVuSans-74" transform="translate(331.396484 0)"/>
       <use xlink:href="#DejaVuSans-69" transform="translate(370.605469 0)"/>
       <use xlink:href="#DejaVuSans-6c" transform="translate(398.388672 0)"/>
       <use xlink:href="#DejaVuSans-73" transform="translate(426.171875 0)"/>
       <use xlink:href="#DejaVuSans-5f" transform="translate(478.271484 0)"/>
       <use xlink:href="#DejaVuSans-75" transform="translate(528.271484 0)"/>
       <use xlink:href="#DejaVuSans-75" transform="translate(591.650391 0)"/>
       <use xlink:href="#DejaVuSans-69" transform="translate(655.029297 0)"/>
       <use xlink:href="#DejaVuSans-64" transform="translate(682.8125 0)"/>
       <use xlink:href="#DejaVuSans-34" transform="translate(746.289062 0)"/>
      </g>
     </g>
    </g>
   </g>
   <g id="patch_6">
    <path d="M 101.1125 114.642438 
L 101.1125 18.798437 
" style="fill: none; stroke: #000000; stroke-width: 0.8; stroke-linejoin: miter; stroke-linecap: square"/>
   </g>
   <g id="patch_7">
    <path d="M 101.1125 114.642438 
L 697.648515 114.642438 
" style="fill: none; stroke: #000000; stroke-width: 0.8; stroke-linejoin: miter; stroke-linecap: square"/>
   </g>
   <g id="text_13">
    <!-- 19.912x -->
    <g style="fill: #555555" transform="translate(587.885888 34.351511) scale(0.09 -0.09)">
     <defs>
      <path id="DejaVuSans-39" d="M 703 97 
L 703 672 
Q 941 559 1184 500 
Q 1428 441 1663 441 
Q 2288 441 2617 861 
Q 2947 1281 2994 2138 
Q 2813 1869 2534 1725 
Q 2256 1581 1919 1581 
Q 1219 1581 811 2004 
Q 403 2428 403 3163 
Q 403 3881 828 4315 
Q 1253 4750 1959 4750 
Q 2769 4750 3195 4129 
Q 3622 3509 3622 2328 
Q 3622 1225 3098 567 
Q 2575 -91 1691 -91 
Q 1453 -91 1209 -44 
Q 966 3 703 97 
z
M 1959 2075 
Q 2384 2075 2632 2365 
Q 2881 2656 2881 3163 
Q 2881 3666 2632 3958 
Q 2384 4250 1959 4250 
Q 1534 4250 1286 3958 
Q 1038 3666 1038 3163 
Q 1038 2656 1286 2365 
Q 1534 2075 1959 2075 
z
" transform="scale(0.015625)"/>
      <path id="DejaVuSans-2e" d="M 684 794 
L 1344 794 
L 1344 0 
L 684 0 
L 684 794 
z
" transform="scale(0.015625)"/>
      <path id="DejaVuSans-78" d="M 3513 3500 
L 2247 1797 
L 3578 0 
L 2900 0 
L 1881 1375 
L 863 0 
L 184 0 
L 1544 1831 
L 300 3500 
L 978 3500 
L 1906 2253 
L 2834 3500 
L 3513 3500 
z
" transform="scale(0.015625)"/>
     </defs>
     <use xlink:href="#DejaVuSans-31"/>
     <use xlink:href="#DejaVuSans-39" transform="translate(63.623047 0)"/>
     <use xlink:href="#DejaVuSans-2e" transform="translate(127.246094 0)"/>
     <use xlink:href="#DejaVuSans-39" transform="translate(159.033203 0)"/>
     <use xlink:href="#DejaVuSans-31" transform="translate(222.65625 0)"/>
     <use xlink:href="#DejaVuSans-32" transform="translate(286.279297 0)"/>
     <use xlink:href="#DejaVuSans-78" transform="translate(349.902344 0)"/>
    </g>
   </g>
   <g id="text_14">
    <!-- 4.206x -->
    <g style="fill: #555555" transform="translate(211.466931 69.203875) scale(0.09 -0.09)">
     <use xlink:href="#DejaVuSans-34"/>
     <use xlink:href="#DejaVuSans-2e" transform="translate(63.623047 0)"/>
     <use xlink:href="#DejaVuSans-32" transform="translate(95.410156 0)"/>
     <use xlink:href="#DejaVuSans-30" transform="translate(159.033203 0)"/>
     <use xlink:href="#DejaVuSans-36" transform="translate(222.65625 0)"/>
     <use xlink:href="#DejaVuSans-78" transform="translate(286.279297 0)"/>
    </g>
   </g>
   <g id="text_15">
    <!-- 1.000x -->
    <g style="fill: #555555" transform="translate(134.623788 104.056239) scale(0.09 -0.09)">
     <use xlink:href="#DejaVuSans-31"/>
     <use xlink:href="#DejaVuSans-2e" transform="translate(63.623047 0)"/>
     <use xlink:href="#DejaVuSans-30" transform="translate(95.410156 0)"/>
     <use xlink:href="#DejaVuSans-30" transform="translate(159.033203 0)"/>
     <use xlink:href="#DejaVuSans-30" transform="translate(222.65625 0)"/>
     <use xlink:href="#DejaVuSans-78" transform="translate(286.279297 0)"/>
    </g>
   </g>
   <g id="text_16">
    <!-- uuid4() -->
    <g transform="translate(101.1125 14.798437) scale(0.1 -0.1)">
     <defs>
      <path id="DejaVuSans-Bold-75" d="M 500 1363 
L 500 3500 
L 1625 3500 
L 1625 3150 
Q 1625 2866 1622 2436 
Q 1619 2006 1619 1863 
Q 1619 1441 1641 1255 
Q 1663 1069 1716 984 
Q 1784 875 1895 815 
Q 2006 756 2150 756 
Q 2500 756 2700 1025 
Q 2900 1294 2900 1772 
L 2900 3500 
L 4019 3500 
L 4019 0 
L 2900 0 
L 2900 506 
Q 2647 200 2364 54 
Q 2081 -91 1741 -91 
Q 1134 -91 817 281 
Q 500 653 500 1363 
z
" transform="scale(0.015625)"/>
      <path id="DejaVuSans-Bold-69" d="M 538 3500 
L 1656 3500 
L 1656 0 
L 538 0 
L 538 3500 
z
M 538 4863 
L 1656 4863 
L 1656 3950 
L 538 3950 
L 538 4863 
z
" transform="scale(0.015625)"/>
      <path id="DejaVuSans-Bold-64" d="M 2919 2988 
L 2919 4863 
L 4044 4863 
L 4044 0 
L 2919 0 
L 2919 506 
Q 2688 197 2409 53 
Q 2131 -91 1766 -91 
Q 1119 -91 703 423 
Q 288 938 288 1747 
Q 288 2556 703 3070 
Q 1119 3584 1766 3584 
Q 2128 3584 2408 3439 
Q 2688 3294 2919 2988 
z
M 2181 722 
Q 2541 722 2730 984 
Q 2919 1247 2919 1747 
Q 2919 2247 2730 2509 
Q 2541 2772 2181 2772 
Q 1825 2772 1636 2509 
Q 1447 2247 1447 1747 
Q 1447 1247 1636 984 
Q 1825 722 2181 722 
z
" transform="scale(0.015625)"/>
      <path id="DejaVuSans-Bold-34" d="M 2356 3675 
L 1038 1722 
L 2356 1722 
L 2356 3675 
z
M 2156 4666 
L 3494 4666 
L 3494 1722 
L 4159 1722 
L 4159 850 
L 3494 850 
L 3494 0 
L 2356 0 
L 2356 850 
L 288 850 
L 288 1881 
L 2156 4666 
z
" transform="scale(0.015625)"/>
      <path id="DejaVuSans-Bold-28" d="M 2413 -844 
L 1484 -844 
Q 1006 -72 778 623 
Q 550 1319 550 2003 
Q 550 2688 779 3389 
Q 1009 4091 1484 4856 
L 2413 4856 
Q 2013 4116 1813 3408 
Q 1613 2700 1613 2009 
Q 1613 1319 1811 609 
Q 2009 -100 2413 -844 
z
" transform="scale(0.015625)"/>
      <path id="DejaVuSans-Bold-29" d="M 513 -844 
Q 913 -100 1113 609 
Q 1313 1319 1313 2009 
Q 1313 2700 1113 3408 
Q 913 4116 513 4856 
L 1441 4856 
Q 1916 4091 2145 3389 
Q 2375 2688 2375 2003 
Q 2375 1319 2147 623 
Q 1919 -72 1441 -844 
L 513 -844 
z
" transform="scale(0.015625)"/>
     </defs>
     <use xlink:href="#DejaVuSans-Bold-75"/>
     <use xlink:href="#DejaVuSans-Bold-75" transform="translate(71.191406 0)"/>
     <use xlink:href="#DejaVuSans-Bold-69" transform="translate(142.382812 0)"/>
     <use xlink:href="#DejaVuSans-Bold-64" transform="translate(176.660156 0)"/>
     <use xlink:href="#DejaVuSans-Bold-34" transform="translate(248.242188 0)"/>
     <use xlink:href="#DejaVuSans-Bold-28" transform="translate(317.822266 0)"/>
     <use xlink:href="#DejaVuSans-Bold-29" transform="translate(363.525391 0)"/>
    </g>
   </g>
  </g>
  <g id="axes_2">
   <g id="patch_8">
    <path d="M 101.1125 258.606438 
L 697.648515 258.606438 
L 697.648515 162.762438 
L 101.1125 162.762438 
z
" style="fill: #ffffff"/>
   </g>
   <g id="patch_9">
    <path d="M 101.1125 167.118983 
L 578.341312 167.118983 
L 578.341312 184.545165 
L 101.1125 184.545165 
z
" clip-path="url(#p907a52ad5e)" style="fill: #1f77b4"/>
   </g>
   <g id="patch_10">
    <path d="M 101.1125 201.971347 
L 207.731265 201.971347 
L 207.731265 219.397528 
L 101.1125 219.397528 
z
" clip-path="url(#p907a52ad5e)" style="fill: #ff7f0e"/>
   </g>
   <g id="patch_11">
    <path d="M 101.1125 236.82371 
L 131.418537 236.82371 
L 131.418537 254.249892 
L 101.1125 254.249892 
z
" clip-path="url(#p907a52ad5e)" style="fill: #2ca02c"/>
   </g>
   <g id="matplotlib.axis_3">
    <g id="xtick_9">
     <g id="line2d_12">
      <g>
       <use xlink:href="#m27fb2324c4" x="101.1125" y="258.606438" style="stroke: #000000; stroke-width: 0.8"/>
      </g>
     </g>
     <g id="text_17">
      <!-- 0 -->
      <g transform="translate(98.5675 271.685188) scale(0.08 -0.08)">
       <use xlink:href="#DejaVuSans-30"/>
      </g>
     </g>
    </g>
    <g id="xtick_10">
     <g id="line2d_13">
      <g>
       <use xlink:href="#m27fb2324c4" x="170.042728" y="258.606438" style="stroke: #000000; stroke-width: 0.8"/>
      </g>
     </g>
     <g id="text_18">
      <!-- 200 -->
      <g transform="translate(162.407728 271.685188) scale(0.08 -0.08)">
       <use xlink:href="#DejaVuSans-32"/>
       <use xlink:href="#DejaVuSans-30" transform="translate(63.623047 0)"/>
       <use xlink:href="#DejaVuSans-30" transform="translate(127.246094 0)"/>
      </g>
     </g>
    </g>
    <g id="xtick_11">
     <g id="line2d_14">
      <g>
       <use xlink:href="#m27fb2324c4" x="238.972956" y="258.606438" style="stroke: #000000; stroke-width: 0.8"/>
      </g>
     </g>
     <g id="text_19">
      <!-- 400 -->
      <g transform="translate(231.337956 271.685188) scale(0.08 -0.08)">
       <use xlink:href="#DejaVuSans-34"/>
       <use xlink:href="#DejaVuSans-30" transform="translate(63.623047 0)"/>
       <use xlink:href="#DejaVuSans-30" transform="translate(127.246094 0)"/>
      </g>
     </g>
    </g>
    <g id="xtick_12">
     <g id="line2d_15">
      <g>
       <use xlink:href="#m27fb2324c4" x="307.903184" y="258.606438" style="stroke: #000000; stroke-width: 0.8"/>
      </g>
     </g>
     <g id="text_20">
      <!-- 600 -->
      <g transform="translate(300.268184 271.685188) scale(0.08 -0.08)">
       <use xlink:href="#DejaVuSans-36"/>
       <use xlink:href="#DejaVuSans-30" transform="translate(63.623047 0)"/>
       <use xlink:href="#DejaVuSans-30" transform="translate(127.246094 0)"/>
      </g>
     </g>
    </g>
    <g id="xtick_13">
     <g id="line2d_16">
      <g>
       <use xlink:href="#m27fb2324c4" x="376.833412" y="258.606438" style="stroke: #000000; stroke-width: 0.8"/>
      </g>
     </g>
     <g id="text_21">
      <!-- 800 -->
      <g transform="translate(369.198412 271.685188) scale(0.08 -0.08)">
       <use xlink:href="#DejaVuSans-38"/>
       <use xlink:href="#DejaVuSans-30" transform="translate(63.623047 0)"/>
       <use xlink:href="#DejaVuSans-30" transform="translate(127.246094 0)"/>
      </g>
     </g>
    </g>
    <g id="xtick_14">
     <g id="line2d_17">
      <g>
       <use xlink:href="#m27fb2324c4" x="445.763641" y="258.606438" style="stroke: #000000; stroke-width: 0.8"/>
      </g>
     </g>
     <g id="text_22">
      <!-- 1000 -->
      <g transform="translate(435.583641 271.685188) scale(0.08 -0.08)">
       <use xlink:href="#DejaVuSans-31"/>
       <use xlink:href="#DejaVuSans-30" transform="translate(63.623047 0)"/>
       <use xlink:href="#DejaVuSans-30" transform="translate(127.246094 0)"/>
       <use xlink:href="#DejaVuSans-30" transform="translate(190.869141 0)"/>
      </g>
     </g>
    </g>
    <g id="xtick_15">
     <g id="line2d_18">
      <g>
       <use xlink:href="#m27fb2324c4" x="514.693869" y="258.606438" style="stroke: #000000; stroke-width: 0.8"/>
      </g>
     </g>
     <g id="text_23">
      <!-- 1200 -->
      <g transform="translate(504.513869 271.685188) scale(0.08 -0.08)">
       <use xlink:href="#DejaVuSans-31"/>
       <use xlink:href="#DejaVuSans-32" transform="translate(63.623047 0)"/>
       <use xlink:href="#DejaVuSans-30" transform="translate(127.246094 0)"/>
       <use xlink:href="#DejaVuSans-30" transform="translate(190.869141 0)"/>
      </g>
     </g>
    </g>
    <g id="xtick_16">
     <g id="line2d_19">
      <g>
       <use xlink:href="#m27fb2324c4" x="583.624097" y="258.606438" style="stroke: #000000; stroke-width: 0.8"/>
      </g>
     </g>
     <g id="text_24">
      <!-- 1400 -->
      <g transform="translate(573.444097 271.685188) scale(0.08 -0.08)">
       <use xlink:href="#DejaVuSans-31"/>
       <use xlink:href="#DejaVuSans-34" transform="translate(63.623047 0)"/>
       <use xlink:href="#DejaVuSans-30" transform="translate(127.246094 0)"/>
       <use xlink:href="#DejaVuSans-30" transform="translate(190.869141 0)"/>
      </g>
     </g>
    </g>
    <g id="xtick_17">
     <g id="line2d_20">
      <g>
       <use xlink:href="#m27fb2324c4" x="652.554325" y="258.606438" style="stroke: #000000; stroke-width: 0.8"/>
      </g>
     </g>
     <g id="text_25">
      <!-- 1600 -->
      <g transform="translate(642.374325 271.685188) scale(0.08 -0.08)">
       <use xlink:href="#DejaVuSans-31"/>
       <use xlink:href="#DejaVuSans-36" transform="translate(63.623047 0)"/>
       <use xlink:href="#DejaVuSans-30" transform="translate(127.246094 0)"/>
       <use xlink:href="#DejaVuSans-30" transform="translate(190.869141 0)"/>
      </g>
     </g>
    </g>
    <g id="text_26">
     <!-- median time (ns) -->
     <g transform="translate(365.066757 283.427688) scale(0.08 -0.08)">
      <use xlink:href="#DejaVuSans-6d"/>
      <use xlink:href="#DejaVuSans-65" transform="translate(97.412109 0)"/>
      <use xlink:href="#DejaVuSans-64" transform="translate(158.935547 0)"/>
      <use xlink:href="#DejaVuSans-69" transform="translate(222.412109 0)"/>
      <use xlink:href="#DejaVuSans-61" transform="translate(250.195312 0)"/>
      <use xlink:href="#DejaVuSans-6e" transform="translate(311.474609 0)"/>
      <use xlink:href="#DejaVuSans-20" transform="translate(374.853516 0)"/>
      <use xlink:href="#DejaVuSans-74" transform="translate(406.640625 0)"/>
      <use xlink:href="#DejaVuSans-69" transform="translate(445.849609 0)"/>
      <use xlink:href="#DejaVuSans-6d" transform="translate(473.632812 0)"/>
      <use xlink:href="#DejaVuSans-65" transform="translate(571.044922 0)"/>
      <use xlink:href="#DejaVuSans-20" transform="translate(632.568359 0)"/>
      <use xlink:href="#DejaVuSans-28" transform="translate(664.355469 0)"/>
      <use xlink:href="#DejaVuSans-6e" transform="translate(703.369141 0)"/>
      <use xlink:href="#DejaVuSans-73" transform="translate(766.748047 0)"/>
      <use xlink:href="#DejaVuSans-29" transform="translate(818.847656 0)"/>
     </g>
    </g>
   </g>
   <g id="matplotlib.axis_4">
    <g id="ytick_4">
     <g id="line2d_21">
      <g>
       <use xlink:href="#m42e42a087f" x="101.1125" y="175.832074" style="stroke: #000000; stroke-width: 0.8"/>
      </g>
     </g>
     <g id="text_27">
      <!-- stdlib_uuid7 -->
      <g transform="translate(45.675 178.871449) scale(0.08 -0.08)">
       <defs>
        <path id="DejaVuSans-37" d="M 525 4666 
L 3525 4666 
L 3525 4397 
L 1831 0 
L 1172 0 
L 2766 4134 
L 525 4134 
L 525 4666 
z
" transform="scale(0.015625)"/>
       </defs>
       <use xlink:href="#DejaVuSans-73"/>
       <use xlink:href="#DejaVuSans-74" transform="translate(52.099609 0)"/>
       <use xlink:href="#DejaVuSans-64" transform="translate(91.308594 0)"/>
       <use xlink:href="#DejaVuSans-6c" transform="translate(154.785156 0)"/>
       <use xlink:href="#DejaVuSans-69" transform="translate(182.568359 0)"/>
       <use xlink:href="#DejaVuSans-62" transform="translate(210.351562 0)"/>
       <use xlink:href="#DejaVuSans-5f" transform="translate(273.828125 0)"/>
       <use xlink:href="#DejaVuSans-75" transform="translate(323.828125 0)"/>
       <use xlink:href="#DejaVuSans-75" transform="translate(387.207031 0)"/>
       <use xlink:href="#DejaVuSans-69" transform="translate(450.585938 0)"/>
       <use xlink:href="#DejaVuSans-64" transform="translate(478.369141 0)"/>
       <use xlink:href="#DejaVuSans-37" transform="translate(541.845703 0)"/>
      </g>
     </g>
    </g>
    <g id="ytick_5">
     <g id="line2d_22">
      <g>
       <use xlink:href="#m42e42a087f" x="101.1125" y="210.684438" style="stroke: #000000; stroke-width: 0.8"/>
      </g>
     </g>
     <g id="text_28">
      <!-- compat_uuid7 -->
      <g transform="translate(37.3775 213.723813) scale(0.08 -0.08)">
       <use xlink:href="#DejaVuSans-63"/>
       <use xlink:href="#DejaVuSans-6f" transform="translate(54.980469 0)"/>
       <use xlink:href="#DejaVuSans-6d" transform="translate(116.162109 0)"/>
       <use xlink:href="#DejaVuSans-70" transform="translate(213.574219 0)"/>
       <use xlink:href="#DejaVuSans-61" transform="translate(277.050781 0)"/>
       <use xlink:href="#DejaVuSans-74" transform="translate(338.330078 0)"/>
       <use xlink:href="#DejaVuSans-5f" transform="translate(377.539062 0)"/>
       <use xlink:href="#DejaVuSans-75" transform="translate(427.539062 0)"/>
       <use xlink:href="#DejaVuSans-75" transform="translate(490.917969 0)"/>
       <use xlink:href="#DejaVuSans-69" transform="translate(554.296875 0)"/>
       <use xlink:href="#DejaVuSans-64" transform="translate(582.080078 0)"/>
       <use xlink:href="#DejaVuSans-37" transform="translate(645.556641 0)"/>
      </g>
     </g>
    </g>
    <g id="ytick_6">
     <g id="line2d_23">
      <g>
       <use xlink:href="#m42e42a087f" x="101.1125" y="245.536801" style="stroke: #000000; stroke-width: 0.8"/>
      </g>
     </g>
     <g id="text_29">
      <!-- uuid_utils_uuid7 -->
      <g transform="translate(29.32125 248.576176) scale(0.08 -0.08)">
       <use xlink:href="#DejaVuSans-75"/>
       <use xlink:href="#DejaVuSans-75" transform="translate(63.378906 0)"/>
       <use xlink:href="#DejaVuSans-69" transform="translate(126.757812 0)"/>
       <use xlink:href="#DejaVuSans-64" transform="translate(154.541016 0)"/>
       <use xlink:href="#DejaVuSans-5f" transform="translate(218.017578 0)"/>
       <use xlink:href="#DejaVuSans-75" transform="translate(268.017578 0)"/>
       <use xlink:href="#DejaVuSans-74" transform="translate(331.396484 0)"/>
       <use xlink:href="#DejaVuSans-69" transform="translate(370.605469 0)"/>
       <use xlink:href="#DejaVuSans-6c" transform="translate(398.388672 0)"/>
       <use xlink:href="#DejaVuSans-73" transform="translate(426.171875 0)"/>
       <use xlink:href="#DejaVuSans-5f" transform="translate(478.271484 0)"/>
       <use xlink:href="#DejaVuSans-75" transform="translate(528.271484 0)"/>
       <use xlink:href="#DejaVuSans-75" transform="translate(591.650391 0)"/>
       <use xlink:href="#DejaVuSans-69" transform="translate(655.029297 0)"/>
       <use xlink:href="#DejaVuSans-64" transform="translate(682.8125 0)"/>
       <use xlink:href="#DejaVuSans-37" transform="translate(746.289062 0)"/>
      </g>
     </g>
    </g>
   </g>
   <g id="patch_12">
    <path d="M 101.1125 258.606437 
L 101.1125 162.762438 
" style="fill: none; stroke: #000000; stroke-width: 0.8; stroke-linejoin: miter; stroke-linecap: square"/>
   </g>
   <g id="patch_13">
    <path d="M 101.1125 258.606438 
L 697.648515 258.606438 
" style="fill: none; stroke: #000000; stroke-width: 0.8; stroke-linejoin: miter; stroke-linecap: square"/>
   </g>
   <g id="text_30">
    <!-- 15.747x -->
    <g style="fill: #555555" transform="translate(587.885888 178.315511) scale(0.09 -0.09)">
     <defs>
      <path id="DejaVuSans-35" d="M 691 4666 
L 3169 4666 
L 3169 4134 
L 1269 4134 
L 1269 2991 
Q 1406 3038 1543 3061 
Q 1681 3084 1819 3084 
Q 2600 3084 3056 2656 
Q 3513 2228 3513 1497 
Q 3513 744 3044 326 
Q 2575 -91 1722 -91 
Q 1428 -91 1123 -41 
Q 819 9 494 109 
L 494 744 
Q 775 591 1075 516 
Q 1375 441 1709 441 
Q 2250 441 2565 725 
Q 2881 1009 2881 1497 
Q 2881 1984 2565 2268 
Q 2250 2553 1709 2553 
Q 1456 2553 1204 2497 
Q 953 2441 691 2322 
L 691 4666 
z
" transform="scale(0.015625)"/>
     </defs>
     <use xlink:href="#DejaVuSans-31"/>
     <use xlink:href="#DejaVuSans-35" transform="translate(63.623047 0)"/>
     <use xlink:href="#DejaVuSans-2e" transform="translate(127.246094 0)"/>
     <use xlink:href="#DejaVuSans-37" transform="translate(159.033203 0)"/>
     <use xlink:href="#DejaVuSans-34" transform="translate(222.65625 0)"/>
     <use xlink:href="#DejaVuSans-37" transform="translate(286.279297 0)"/>
     <use xlink:href="#DejaVuSans-78" transform="translate(349.902344 0)"/>
    </g>
   </g>
   <g id="text_31">
    <!-- 3.518x -->
    <g style="fill: #555555" transform="translate(217.275841 213.167875) scale(0.09 -0.09)">
     <defs>
      <path id="DejaVuSans-33" d="M 2597 2516 
Q 3050 2419 3304 2112 
Q 3559 1806 3559 1356 
Q 3559 666 3084 287 
Q 2609 -91 1734 -91 
Q 1441 -91 1130 -33 
Q 819 25 488 141 
L 488 750 
Q 750 597 1062 519 
Q 1375 441 1716 441 
Q 2309 441 2620 675 
Q 2931 909 2931 1356 
Q 2931 1769 2642 2001 
Q 2353 2234 1838 2234 
L 1294 2234 
L 1294 2753 
L 1863 2753 
Q 2328 2753 2575 2939 
Q 2822 3125 2822 3475 
Q 2822 3834 2567 4026 
Q 2313 4219 1838 4219 
Q 1578 4219 1281 4162 
Q 984 4106 628 3988 
L 628 4550 
Q 988 4650 1302 4700 
Q 1616 4750 1894 4750 
Q 2613 4750 3031 4423 
Q 3450 4097 3450 3541 
Q 3450 3153 3228 2886 
Q 3006 2619 2597 2516 
z
" transform="scale(0.015625)"/>
     </defs>
     <use xlink:href="#DejaVuSans-33"/>
     <use xlink:href="#DejaVuSans-2e" transform="translate(63.623047 0)"/>
     <use xlink:href="#DejaVuSans-35" transform="translate(95.410156 0)"/>
     <use xlink:href="#DejaVuSans-31" transform="translate(159.033203 0)"/>
     <use xlink:href="#DejaVuSans-38" transform="translate(222.65625 0)"/>
     <use xlink:href="#DejaVuSans-78" transform="translate(286.279297 0)"/>
    </g>
   </g>
   <g id="text_32">
    <!-- 1.000x -->
    <g style="fill: #555555" transform="translate(140.963113 248.020239) scale(0.09 -0.09)">
     <use xlink:href="#DejaVuSans-31"/>
     <use xlink:href="#DejaVuSans-2e" transform="translate(63.623047 0)"/>
     <use xlink:href="#DejaVuSans-30" transform="translate(95.410156 0)"/>
     <use xlink:href="#DejaVuSans-30" transform="translate(159.033203 0)"/>
     <use xlink:href="#DejaVuSans-30" transform="translate(222.65625 0)"/>
     <use xlink:href="#DejaVuSans-78" transform="translate(286.279297 0)"/>
    </g>
   </g>
   <g id="text_33">
    <!-- uuid7() -->
    <g transform="translate(101.1125 158.762438) scale(0.1 -0.1)">
     <defs>
      <path id="DejaVuSans-Bold-37" d="M 428 4666 
L 3944 4666 
L 3944 3988 
L 2125 0 
L 953 0 
L 2675 3781 
L 428 3781 
L 428 4666 
z
" transform="scale(0.015625)"/>
     </defs>
     <use xlink:href="#DejaVuSans-Bold-75"/>
     <use xlink:href="#DejaVuSans-Bold-75" transform="translate(71.191406 0)"/>
     <use xlink:href="#DejaVuSans-Bold-69" transform="translate(142.382812 0)"/>
     <use xlink:href="#DejaVuSans-Bold-64" transform="translate(176.660156 0)"/>
     <use xlink:href="#DejaVuSans-Bold-37" transform="translate(248.242188 0)"/>
     <use xlink:href="#DejaVuSans-Bold-28" transform="translate(317.822266 0)"/>
     <use xlink:href="#DejaVuSans-Bold-29" transform="translate(363.525391 0)"/>
    </g>
   </g>
  </g>
  <g id="axes_3">
   <g id="patch_14">
    <path d="M 101.1125 402.570438 
L 697.648515 402.570438 
L 697.648515 306.726438 
L 101.1125 306.726438 
z
" style="fill: #ffffff"/>
   </g>
   <g id="patch_15">
    <path d="M 101.1125 311.082983 
L 578.341312 311.082983 
L 578.341312 340.126619 
L 101.1125 340.126619 
z
" clip-path="url(#p5b81461b11)" style="fill: #1f77b4"/>
   </g>
   <g id="patch_16">
    <path d="M 101.1125 369.170256 
L 182.161142 369.170256 
L 182.161142 398.213892 
L 101.1125 398.213892 
z
" clip-path="url(#p5b81461b11)" style="fill: #ff7f0e"/>
   </g>
   <g id="matplotlib.axis_5">
    <g id="xtick_18">
     <g id="line2d_24">
      <g>
       <use xlink:href="#m27fb2324c4" x="101.1125" y="402.570438" style="stroke: #000000; stroke-width: 0.8"/>
      </g>
     </g>
     <g id="text_34">
      <!-- 0 -->
      <g transform="translate(98.5675 415.649188) scale(0.08 -0.08)">
       <use xlink:href="#DejaVuSans-30"/>
      </g>
     </g>
    </g>
    <g id="xtick_19">
     <g id="line2d_25">
      <g>
       <use xlink:href="#m27fb2324c4" x="200.503807" y="402.570438" style="stroke: #000000; stroke-width: 0.8"/>
      </g>
     </g>
     <g id="text_35">
      <!-- 100 -->
      <g transform="translate(192.868807 415.649188) scale(0.08 -0.08)">
       <use xlink:href="#DejaVuSans-31"/>
       <use xlink:href="#DejaVuSans-30" transform="translate(63.623047 0)"/>
       <use xlink:href="#DejaVuSans-30" transform="translate(127.246094 0)"/>
      </g>
     </g>
    </g>
    <g id="xtick_20">
     <g id="line2d_26">
      <g>
       <use xlink:href="#m27fb2324c4" x="299.895115" y="402.570438" style="stroke: #000000; stroke-width: 0.8"/>
      </g>
     </g>
     <g id="text_36">
      <!-- 200 -->
      <g transform="translate(292.260115 415.649188) scale(0.08 -0.08)">
       <use xlink:href="#DejaVuSans-32"/>
       <use xlink:href="#DejaVuSans-30" transform="translate(63.623047 0)"/>
       <use xlink:href="#DejaVuSans-30" transform="translate(127.246094 0)"/>
      </g>
     </g>
    </g>
    <g id="xtick_21">
     <g id="line2d_27">
      <g>
       <use xlink:href="#m27fb2324c4" x="399.286422" y="402.570438" style="stroke: #000000; stroke-width: 0.8"/>
      </g>
     </g>
     <g id="text_37">
      <!-- 300 -->
      <g transform="translate(391.651422 415.649188) scale(0.08 -0.08)">
       <use xlink:href="#DejaVuSans-33"/>
       <use xlink:href="#DejaVuSans-30" transform="translate(63.623047 0)"/>
       <use xlink:href="#DejaVuSans-30" transform="translate(127.246094 0)"/>
      </g>
     </g>
    </g>
    <g id="xtick_22">
     <g id="line2d_28">
      <g>
       <use xlink:href="#m27fb2324c4" x="498.67773" y="402.570438" style="stroke: #000000; stroke-width: 0.8"/>
      </g>
     </g>
     <g id="text_38">
      <!-- 400 -->
      <g transform="translate(491.04273 415.649188) scale(0.08 -0.08)">
       <use xlink:href="#DejaVuSans-34"/>
       <use xlink:href="#DejaVuSans-30" transform="translate(63.623047 0)"/>
       <use xlink:href="#DejaVuSans-30" transform="translate(127.246094 0)"/>
      </g>
     </g>
    </g>
    <g id="xtick_23">
     <g id="line2d_29">
      <g>
       <use xlink:href="#m27fb2324c4" x="598.069037" y="402.570438" style="stroke: #000000; stroke-width: 0.8"/>
      </g>
     </g>
     <g id="text_39">
      <!-- 500 -->
      <g transform="translate(590.434037 415.649188) scale(0.08 -0.08)">
       <use xlink:href="#DejaVuSans-35"/>
       <use xlink:href="#DejaVuSans-30" transform="translate(63.623047 0)"/>
       <use xlink:href="#DejaVuSans-30" transform="translate(127.246094 0)"/>
      </g>
     </g>
    </g>
    <g id="xtick_24">
     <g id="line2d_30">
      <g>
       <use xlink:href="#m27fb2324c4" x="697.460344" y="402.570438" style="stroke: #000000; stroke-width: 0.8"/>
      </g>
     </g>
     <g id="text_40">
      <!-- 600 -->
      <g transform="translate(689.825344 415.649188) scale(0.08 -0.08)">
       <use xlink:href="#DejaVuSans-36"/>
       <use xlink:href="#DejaVuSans-30" transform="translate(63.623047 0)"/>
       <use xlink:href="#DejaVuSans-30" transform="translate(127.246094 0)"/>
      </g>
     </g>
    </g>
    <g id="text_41">
     <!-- median time (ns) -->
     <g transform="translate(365.066757 427.391688) scale(0.08 -0.08)">
      <use xlink:href="#DejaVuSans-6d"/>
      <use xlink:href="#DejaVuSans-65" transform="translate(97.412109 0)"/>
      <use xlink:href="#DejaVuSans-64" transform="translate(158.935547 0)"/>
      <use xlink:href="#DejaVuSans-69" transform="translate(222.412109 0)"/>
      <use xlink:href="#DejaVuSans-61" transform="translate(250.195312 0)"/>
      <use xlink:href="#DejaVuSans-6e" transform="translate(311.474609 0)"/>
      <use xlink:href="#DejaVuSans-20" transform="translate(374.853516 0)"/>
      <use xlink:href="#DejaVuSans-74" transform="translate(406.640625 0)"/>
      <use xlink:href="#DejaVuSans-69" transform="translate(445.849609 0)"/>
      <use xlink:href="#DejaVuSans-6d" transform="translate(473.632812 0)"/>
      <use xlink:href="#DejaVuSans-65" transform="translate(571.044922 0)"/>
      <use xlink:href="#DejaVuSans-20" transform="translate(632.568359 0)"/>
      <use xlink:href="#DejaVuSans-28" transform="translate(664.355469 0)"/>
      <use xlink:href="#DejaVuSans-6e" transform="translate(703.369141 0)"/>
      <use xlink:href="#DejaVuSans-73" transform="translate(766.748047 0)"/>
      <use xlink:href="#DejaVuSans-29" transform="translate(818.847656 0)"/>
     </g>
    </g>
   </g>
   <g id="matplotlib.axis_6">
    <g id="ytick_7">
     <g id="line2d_31">
      <g>
       <use xlink:href="#m42e42a087f" x="101.1125" y="325.604801" style="stroke: #000000; stroke-width: 0.8"/>
      </g>
     </g>
     <g id="text_42">
      <!-- stdlib_from_hex -->
      <g transform="translate(31.00625 328.644176) scale(0.08 -0.08)">
       <defs>
        <path id="DejaVuSans-66" d="M 2375 4863 
L 2375 4384 
L 1825 4384 
Q 1516 4384 1395 4259 
Q 1275 4134 1275 3809 
L 1275 3500 
L 2222 3500 
L 2222 3053 
L 1275 3053 
L 1275 0 
L 697 0 
L 697 3053 
L 147 3053 
L 147 3500 
L 697 3500 
L 697 3744 
Q 697 4328 969 4595 
Q 1241 4863 1831 4863 
L 2375 4863 
z
" transform="scale(0.015625)"/>
        <path id="DejaVuSans-72" d="M 2631 2963 
Q 2534 3019 2420 3045 
Q 2306 3072 2169 3072 
Q 1681 3072 1420 2755 
Q 1159 2438 1159 1844 
L 1159 0 
L 581 0 
L 581 3500 
L 1159 3500 
L 1159 2956 
Q 1341 3275 1631 3429 
Q 1922 3584 2338 3584 
Q 2397 3584 2469 3576 
Q 2541 3569 2628 3553 
L 2631 2963 
z
" transform="scale(0.015625)"/>
        <path id="DejaVuSans-68" d="M 3513 2113 
L 3513 0 
L 2938 0 
L 2938 2094 
Q 2938 2591 2744 2837 
Q 2550 3084 2163 3084 
Q 1697 3084 1428 2787 
Q 1159 2491 1159 1978 
L 1159 0 
L 581 0 
L 581 4863 
L 1159 4863 
L 1159 2956 
Q 1366 3272 1645 3428 
Q 1925 3584 2291 3584 
Q 2894 3584 3203 3211 
Q 3513 2838 3513 2113 
z
" transform="scale(0.015625)"/>
       </defs>
       <use xlink:href="#DejaVuSans-73"/>
       <use xlink:href="#DejaVuSans-74" transform="translate(52.099609 0)"/>
       <use xlink:href="#DejaVuSans-64" transform="translate(91.308594 0)"/>
       <use xlink:href="#DejaVuSans-6c" transform="translate(154.785156 0)"/>
       <use xlink:href="#DejaVuSans-69" transform="translate(182.568359 0)"/>
       <use xlink:href="#DejaVuSans-62" transform="translate(210.351562 0)"/>
       <use xlink:href="#DejaVuSans-5f" transform="translate(273.828125 0)"/>
       <use xlink:href="#DejaVuSans-66" transform="translate(323.828125 0)"/>
       <use xlink:href="#DejaVuSans-72" transform="translate(359.033203 0)"/>
       <use xlink:href="#DejaVuSans-6f" transform="translate(397.896484 0)"/>
       <use xlink:href="#DejaVuSans-6d" transform="translate(459.078125 0)"/>
       <use xlink:href="#DejaVuSans-5f" transform="translate(556.490234 0)"/>
       <use xlink:href="#DejaVuSans-68" transform="translate(606.490234 0)"/>
       <use xlink:href="#DejaVuSans-65" transform="translate(669.869141 0)"/>
       <use xlink:href="#DejaVuSans-78" transform="translate(729.642578 0)"/>
      </g>
     </g>
    </g>
    <g id="ytick_8">
     <g id="line2d_32">
      <g>
       <use xlink:href="#m42e42a087f" x="101.1125" y="383.692074" style="stroke: #000000; stroke-width: 0.8"/>
      </g>
     </g>
     <g id="text_43">
      <!-- uuid_utils_from_hex -->
      <g transform="translate(14.6525 386.731449) scale(0.08 -0.08)">
       <use xlink:href="#DejaVuSans-75"/>
       <use xlink:href="#DejaVuSans-75" transform="translate(63.378906 0)"/>
       <use xlink:href="#DejaVuSans-69" transform="translate(126.757812 0)"/>
       <use xlink:href="#DejaVuSans-64" transform="translate(154.541016 0)"/>
       <use xlink:href="#DejaVuSans-5f" transform="translate(218.017578 0)"/>
       <use xlink:href="#DejaVuSans-75" transform="translate(268.017578 0)"/>
       <use xlink:href="#DejaVuSans-74" transform="translate(331.396484 0)"/>
       <use xlink:href="#DejaVuSans-69" transform="translate(370.605469 0)"/>
       <use xlink:href="#DejaVuSans-6c" transform="translate(398.388672 0)"/>
       <use xlink:href="#DejaVuSans-73" transform="translate(426.171875 0)"/>
       <use xlink:href="#DejaVuSans-5f" transform="translate(478.271484 0)"/>
       <use xlink:href="#DejaVuSans-66" transform="translate(528.271484 0)"/>
       <use xlink:href="#DejaVuSans-72" transform="translate(563.476562 0)"/>
       <use xlink:href="#DejaVuSans-6f" transform="translate(602.339844 0)"/>
       <use xlink:href="#DejaVuSans-6d" transform="translate(663.521484 0)"/>
       <use xlink:href="#DejaVuSans-5f" transform="translate(760.933594 0)"/>
       <use xlink:href="#DejaVuSans-68" transform="translate(810.933594 0)"/>
       <use xlink:href="#DejaVuSans-65" transform="translate(874.3125 0)"/>
       <use xlink:href="#DejaVuSans-78" transform="translate(934.085938 0)"/>
      </g>
     </g>
    </g>
   </g>
   <g id="patch_17">
    <path d="M 101.1125 402.570438 
L 101.1125 306.726438 
" style="fill: none; stroke: #000000; stroke-width: 0.8; stroke-linejoin: miter; stroke-linecap: square"/>
   </g>
   <g id="patch_18">
    <path d="M 101.1125 402.570438 
L 697.648515 402.570438 
" style="fill: none; stroke: #000000; stroke-width: 0.8; stroke-linejoin: miter; stroke-linecap: square"/>
   </g>
   <g id="text_44">
    <!-- 5.888x -->
    <g style="fill: #555555" transform="translate(587.885888 328.088239) scale(0.09 -0.09)">
     <use xlink:href="#DejaVuSans-35"/>
     <use xlink:href="#DejaVuSans-2e" transform="translate(63.623047 0)"/>
     <use xlink:href="#DejaVuSans-38" transform="translate(95.410156 0)"/>
     <use xlink:href="#DejaVuSans-38" transform="translate(159.033203 0)"/>
     <use xlink:href="#DejaVuSans-38" transform="translate(222.65625 0)"/>
     <use xlink:href="#DejaVuSans-78" transform="translate(286.279297 0)"/>
    </g>
   </g>
   <g id="text_45">
    <!-- 1.000x -->
    <g style="fill: #555555" transform="translate(191.705718 386.175511) scale(0.09 -0.09)">
     <use xlink:href="#DejaVuSans-31"/>
     <use xlink:href="#DejaVuSans-2e" transform="translate(63.623047 0)"/>
     <use xlink:href="#DejaVuSans-30" transform="translate(95.410156 0)"/>
     <use xlink:href="#DejaVuSans-30" transform="translate(159.033203 0)"/>
     <use xlink:href="#DejaVuSans-30" transform="translate(222.65625 0)"/>
     <use xlink:href="#DejaVuSans-78" transform="translate(286.279297 0)"/>
    </g>
   </g>
   <g id="text_46">
    <!-- UUID from hex -->
    <g transform="translate(101.1125 302.726438) scale(0.1 -0.1)">
     <defs>
      <path id="DejaVuSans-Bold-55" d="M 588 4666 
L 1791 4666 
L 1791 1869 
Q 1791 1291 1980 1042 
Q 2169 794 2597 794 
Q 3028 794 3217 1042 
Q 3406 1291 3406 1869 
L 3406 4666 
L 4609 4666 
L 4609 1869 
Q 4609 878 4112 393 
Q 3616 -91 2597 -91 
Q 1581 -91 1084 393 
Q 588 878 588 1869 
L 588 4666 
z
" transform="scale(0.015625)"/>
      <path id="DejaVuSans-Bold-49" d="M 588 4666 
L 1791 4666 
L 1791 0 
L 588 0 
L 588 4666 
z
" transform="scale(0.015625)"/>
      <path id="DejaVuSans-Bold-44" d="M 1791 3756 
L 1791 909 
L 2222 909 
Q 2959 909 3348 1275 
Q 3738 1641 3738 2338 
Q 3738 3031 3350 3393 
Q 2963 3756 2222 3756 
L 1791 3756 
z
M 588 4666 
L 1856 4666 
Q 2919 4666 3439 4514 
Q 3959 4363 4331 4000 
Q 4659 3684 4818 3271 
Q 4978 2859 4978 2338 
Q 4978 1809 4818 1395 
Q 4659 981 4331 666 
Q 3956 303 3431 151 
Q 2906 0 1856 0 
L 588 0 
L 588 4666 
z
" transform="scale(0.015625)"/>
      <path id="DejaVuSans-Bold-20" transform="scale(0.015625)"/>
      <path id="DejaVuSans-Bold-66" d="M 2841 4863 
L 2841 4128 
L 2222 4128 
Q 1984 4128 1890 4042 
Q 1797 3956 1797 3744 
L 1797 3500 
L 2753 3500 
L 2753 2700 
L 1797 2700 
L 1797 0 
L 678 0 
L 678 2700 
L 122 2700 
L 122 3500 
L 678 3500 
L 678 3744 
Q 678 4316 997 4589 
Q 1316 4863 1984 4863 
L 2841 4863 
z
" transform="scale(0.015625)"/>
      <path id="DejaVuSans-Bold-72" d="M 3138 2547 
Q 2991 2616 2845 2648 
Q 2700 2681 2553 2681 
Q 2122 2681 1889 2404 
Q 1656 2128 1656 1613 
L 1656 0 
L 538 0 
L 538 3500 
L 1656 3500 
L 1656 2925 
Q 1872 3269 2151 3426 
Q 2431 3584 2822 3584 
Q 2878 3584 2943 3579 
Q 3009 3575 3134 3559 
L 3138 2547 
z
" transform="scale(0.015625)"/>
      <path id="DejaVuSans-Bold-6f" d="M 2203 2784 
Q 1831 2784 1636 2517 
Q 1441 2250 1441 1747 
Q 1441 1244 1636 976 
Q 1831 709 2203 709 
Q 2569 709 2762 976 
Q 2956 1244 2956 1747 
Q 2956 2250 2762 2517 
Q 2569 2784 2203 2784 
z
M 2203 3584 
Q 3106 3584 3614 3096 
Q 4122 2609 4122 1747 
Q 4122 884 3614 396 
Q 3106 -91 2203 -91 
Q 1297 -91 786 396 
Q 275 884 275 1747 
Q 275 2609 786 3096 
Q 1297 3584 2203 3584 
z
" transform="scale(0.015625)"/>
      <path id="DejaVuSans-Bold-6d" d="M 3781 2919 
Q 3994 3244 4286 3414 
Q 4578 3584 4928 3584 
Q 5531 3584 5847 3212 
Q 6163 2841 6163 2131 
L 6163 0 
L 5038 0 
L 5038 1825 
Q 5041 1866 5042 1909 
Q 5044 1953 5044 2034 
Q 5044 2406 4934 2573 
Q 4825 2741 4581 2741 
Q 4263 2741 4089 2478 
Q 3916 2216 3909 1719 
L 3909 0 
L 2784 0 
L 2784 1825 
Q 2784 2406 2684 2573 
Q 2584 2741 2328 2741 
Q 2006 2741 1831 2477 
Q 1656 2213 1656 1722 
L 1656 0 
L 531 0 
L 531 3500 
L 1656 3500 
L 1656 2988 
Q 1863 3284 2130 3434 
Q 2397 3584 2719 3584 
Q 3081 3584 3359 3409 
Q 3638 3234 3781 2919 
z
" transform="scale(0.015625)"/>
      <path id="DejaVuSans-Bold-68" d="M 4056 2131 
L 4056 0 
L 2931 0 
L 2931 347 
L 2931 1625 
Q 2931 2084 2911 2256 
Q 2891 2428 2841 2509 
Q 2775 2619 2662 2680 
Q 2550 2741 2406 2741 
Q 2056 2741 1856 2470 
Q 1656 2200 1656 1722 
L 1656 0 
L 538 0 
L 538 4863 
L 1656 4863 
L 1656 2988 
Q 1909 3294 2193 3439 
Q 2478 3584 2822 3584 
Q 3428 3584 3742 3212 
Q 4056 2841 4056 2131 
z
" transform="scale(0.015625)"/>
      <path id="DejaVuSans-Bold-65" d="M 4031 1759 
L 4031 1441 
L 1416 1441 
Q 1456 1047 1700 850 
Q 1944 653 2381 653 
Q 2734 653 3104 758 
Q 3475 863 3866 1075 
L 3866 213 
Q 3469 63 3072 -14 
Q 2675 -91 2278 -91 
Q 1328 -91 801 392 
Q 275 875 275 1747 
Q 275 2603 792 3093 
Q 1309 3584 2216 3584 
Q 3041 3584 3536 3087 
Q 4031 2591 4031 1759 
z
M 2881 2131 
Q 2881 2450 2695 2645 
Q 2509 2841 2209 2841 
Q 1884 2841 1681 2658 
Q 1478 2475 1428 2131 
L 2881 2131 
z
" transform="scale(0.015625)"/>
      <path id="DejaVuSans-Bold-78" d="M 1422 1791 
L 159 3500 
L 1344 3500 
L 2059 2463 
L 2784 3500 
L 3969 3500 
L 2706 1797 
L 4031 0 
L 2847 0 
L 2059 1106 
L 1281 0 
L 97 0 
L 1422 1791 
z
" transform="scale(0.015625)"/>
     </defs>
     <use xlink:href="#DejaVuSans-Bold-55"/>
     <use xlink:href="#DejaVuSans-Bold-55" transform="translate(81.201172 0)"/>
     <use xlink:href="#DejaVuSans-Bold-49" transform="translate(162.402344 0)"/>
     <use xlink:href="#DejaVuSans-Bold-44" transform="translate(199.609375 0)"/>
     <use xlink:href="#DejaVuSans-Bold-20" transform="translate(282.617188 0)"/>
     <use xlink:href="#DejaVuSans-Bold-66" transform="translate(317.431641 0)"/>
     <use xlink:href="#DejaVuSans-Bold-72" transform="translate(360.9375 0)"/>
     <use xlink:href="#DejaVuSans-Bold-6f" transform="translate(410.253906 0)"/>
     <use xlink:href="#DejaVuSans-Bold-6d" transform="translate(478.955078 0)"/>
     <use xlink:href="#DejaVuSans-Bold-20" transform="translate(583.154297 0)"/>
     <use xlink:href="#DejaVuSans-Bold-68" transform="translate(617.96875 0)"/>
     <use xlink:href="#DejaVuSans-Bold-65" transform="translate(689.160156 0)"/>
     <use xlink:href="#DejaVuSans-Bold-78" transform="translate(756.982422 0)"/>
    </g>
   </g>
  </g>
  <g id="axes_4">
   <g id="patch_19">
    <path d="M 101.1125 546.534437 
L 697.648515 546.534437 
L 697.648515 450.690438 
L 101.1125 450.690438 
z
" style="fill: #ffffff"/>
   </g>
   <g id="patch_20">
    <path d="M 101.1125 455.046983 
L 578.341312 455.046983 
L 578.341312 484.090619 
L 101.1125 484.090619 
z
" clip-path="url(#pbdf1561ec5)" style="fill: #1f77b4"/>
   </g>
   <g id="patch_21">
    <path d="M 101.1125 513.134256 
L 227.849461 513.134256 
L 227.849461 542.177892 
L 101.1125 542.177892 
z
" clip-path="url(#pbdf1561ec5)" style="fill: #ff7f0e"/>
   </g>
   <g id="matplotlib.axis_7">
    <g id="xtick_25">
     <g id="line2d_33">
      <g>
       <use xlink:href="#m27fb2324c4" x="101.1125" y="546.534437" style="stroke: #000000; stroke-width: 0.8"/>
      </g>
     </g>
     <g id="text_47">
      <!-- 0 -->
      <g transform="translate(98.5675 559.613187) scale(0.08 -0.08)">
       <use xlink:href="#DejaVuSans-30"/>
      </g>
     </g>
    </g>
    <g id="xtick_26">
     <g id="line2d_34">
      <g>
       <use xlink:href="#m27fb2324c4" x="216.708645" y="546.534437" style="stroke: #000000; stroke-width: 0.8"/>
      </g>
     </g>
     <g id="text_48">
      <!-- 100 -->
      <g transform="translate(209.073645 559.613187) scale(0.08 -0.08)">
       <use xlink:href="#DejaVuSans-31"/>
       <use xlink:href="#DejaVuSans-30" transform="translate(63.623047 0)"/>
       <use xlink:href="#DejaVuSans-30" transform="translate(127.246094 0)"/>
      </g>
     </g>
    </g>
    <g id="xtick_27">
     <g id="line2d_35">
      <g>
       <use xlink:href="#m27fb2324c4" x="332.304789" y="546.534437" style="stroke: #000000; stroke-width: 0.8"/>
      </g>
     </g>
     <g id="text_49">
      <!-- 200 -->
      <g transform="translate(324.669789 559.613187) scale(0.08 -0.08)">
       <use xlink:href="#DejaVuSans-32"/>
       <use xlink:href="#DejaVuSans-30" transform="translate(63.623047 0)"/>
       <use xlink:href="#DejaVuSans-30" transform="translate(127.246094 0)"/>
      </g>
     </g>
    </g>
    <g id="xtick_28">
     <g id="line2d_36">
      <g>
       <use xlink:href="#m27fb2324c4" x="447.900934" y="546.534437" style="stroke: #000000; stroke-width: 0.8"/>
      </g>
     </g>
     <g id="text_50">
      <!-- 300 -->
      <g transform="translate(440.265934 559.613187) scale(0.08 -0.08)">
       <use xlink:href="#DejaVuSans-33"/>
       <use xlink:href="#DejaVuSans-30" transform="translate(63.623047 0)"/>
       <use xlink:href="#DejaVuSans-30" transform="translate(127.246094 0)"/>
      </g>
     </g>
    </g>
    <g id="xtick_29">
     <g id="line2d_37">
      <g>
       <use xlink:href="#m27fb2324c4" x="563.497079" y="546.534437" style="stroke: #000000; stroke-width: 0.8"/>
      </g>
     </g>
     <g id="text_51">
      <!-- 400 -->
      <g transform="translate(555.862079 559.613187) scale(0.08 -0.08)">
       <use xlink:href="#DejaVuSans-34"/>
       <use xlink:href="#DejaVuSans-30" transform="translate(63.623047 0)"/>
       <use xlink:href="#DejaVuSans-30" transform="translate(127.246094 0)"/>
      </g>
     </g>
    </g>
    <g id="xtick_30">
     <g id="line2d_38">
      <g>
       <use xlink:href="#m27fb2324c4" x="679.093223" y="546.534437" style="stroke: #000000; stroke-width: 0.8"/>
      </g>
     </g>
     <g id="text_52">
      <!-- 500 -->
      <g transform="translate(671.458223 559.613187) scale(0.08 -0.08)">
       <use xlink:href="#DejaVuSans-35"/>
       <use xlink:href="#DejaVuSans-30" transform="translate(63.623047 0)"/>
       <use xlink:href="#DejaVuSans-30" transform="translate(127.246094 0)"/>
      </g>
     </g>
    </g>
    <g id="text_53">
     <!-- median time (ns) -->
     <g transform="translate(365.066757 571.355687) scale(0.08 -0.08)">
      <use xlink:href="#DejaVuSans-6d"/>
      <use xlink:href="#DejaVuSans-65" transform="translate(97.412109 0)"/>
      <use xlink:href="#DejaVuSans-64" transform="translate(158.935547 0)"/>
      <use xlink:href="#DejaVuSans-69" transform="translate(222.412109 0)"/>
      <use xlink:href="#DejaVuSans-61" transform="translate(250.195312 0)"/>
      <use xlink:href="#DejaVuSans-6e" transform="translate(311.474609 0)"/>
      <use xlink:href="#DejaVuSans-20" transform="translate(374.853516 0)"/>
      <use xlink:href="#DejaVuSans-74" transform="translate(406.640625 0)"/>
      <use xlink:href="#DejaVuSans-69" transform="translate(445.849609 0)"/>
      <use xlink:href="#DejaVuSans-6d" transform="translate(473.632812 0)"/>
      <use xlink:href="#DejaVuSans-65" transform="translate(571.044922 0)"/>
      <use xlink:href="#DejaVuSans-20" transform="translate(632.568359 0)"/>
      <use xlink:href="#DejaVuSans-28" transform="translate(664.355469 0)"/>
      <use xlink:href="#DejaVuSans-6e" transform="translate(703.369141 0)"/>
      <use xlink:href="#DejaVuSans-73" transform="translate(766.748047 0)"/>
      <use xlink:href="#DejaVuSans-29" transform="translate(818.847656 0)"/>
     </g>
    </g>
   </g>
   <g id="matplotlib.axis_8">
    <g id="ytick_9">
     <g id="line2d_39">
      <g>
       <use xlink:href="#m42e42a087f" x="101.1125" y="469.568801" style="stroke: #000000; stroke-width: 0.8"/>
      </g>
     </g>
     <g id="text_54">
      <!-- stdlib_from_bytes -->
      <g transform="translate(23.55375 472.608176) scale(0.08 -0.08)">
       <defs>
        <path id="DejaVuSans-79" d="M 2059 -325 
Q 1816 -950 1584 -1140 
Q 1353 -1331 966 -1331 
L 506 -1331 
L 506 -850 
L 844 -850 
Q 1081 -850 1212 -737 
Q 1344 -625 1503 -206 
L 1606 56 
L 191 3500 
L 800 3500 
L 1894 763 
L 2988 3500 
L 3597 3500 
L 2059 -325 
z
" transform="scale(0.015625)"/>
       </defs>
       <use xlink:href="#DejaVuSans-73"/>
       <use xlink:href="#DejaVuSans-74" transform="translate(52.099609 0)"/>
       <use xlink:href="#DejaVuSans-64" transform="translate(91.308594 0)"/>
       <use xlink:href="#DejaVuSans-6c" transform="translate(154.785156 0)"/>
       <use xlink:href="#DejaVuSans-69" transform="translate(182.568359 0)"/>
       <use xlink:href="#DejaVuSans-62" transform="translate(210.351562 0)"/>
       <use xlink:href="#DejaVuSans-5f" transform="translate(273.828125 0)"/>
       <use xlink:href="#DejaVuSans-66" transform="translate(323.828125 0)"/>
       <use xlink:href="#DejaVuSans-72" transform="translate(359.033203 0)"/>
       <use xlink:href="#DejaVuSans-6f" transform="translate(397.896484 0)"/>
       <use xlink:href="#DejaVuSans-6d" transform="translate(459.078125 0)"/>
       <use xlink:href="#DejaVuSans-5f" transform="translate(556.490234 0)"/>
       <use xlink:href="#DejaVuSans-62" transform="translate(606.490234 0)"/>
       <use xlink:href="#DejaVuSans-79" transform="translate(669.966797 0)"/>
       <use xlink:href="#DejaVuSans-74" transform="translate(729.146484 0)"/>
       <use xlink:href="#DejaVuSans-65" transform="translate(768.355469 0)"/>
       <use xlink:href="#DejaVuSans-73" transform="translate(829.878906 0)"/>
      </g>
     </g>
    </g>
    <g id="ytick_10">
     <g id="line2d_40">
      <g>
       <use xlink:href="#m42e42a087f" x="101.1125" y="527.656074" style="stroke: #000000; stroke-width: 0.8"/>
      </g>
     </g>
     <g id="text_55">
      <!-- uuid_utils_from_bytes -->
      <g transform="translate(7.2 530.695449) scale(0.08 -0.08)">
       <use xlink:href="#DejaVuSans-75"/>
       <use xlink:href="#DejaVuSans-75" transform="translate(63.378906 0)"/>
       <use xlink:href="#DejaVuSans-69" transform="translate(126.757812 0)"/>
       <use xlink:href="#DejaVuSans-64" transform="translate(154.541016 0)"/>
       <use xlink:href="#DejaVuSans-5f" transform="translate(218.017578 0)"/>
       <use xlink:href="#DejaVuSans-75" transform="translate(268.017578 0)"/>
       <use xlink:href="#DejaVuSans-74" transform="translate(331.396484 0)"/>
       <use xlink:href="#DejaVuSans-69" transform="translate(370.605469 0)"/>
       <use xlink:href="#DejaVuSans-6c" transform="translate(398.388672 0)"/>
       <use xlink:href="#DejaVuSans-73" transform="translate(426.171875 0)"/>
       <use xlink:href="#DejaVuSans-5f" transform="translate(478.271484 0)"/>
       <use xlink:href="#DejaVuSans-66" transform="translate(528.271484 0)"/>
       <use xlink:href="#DejaVuSans-72" transform="translate(563.476562 0)"/>
       <use xlink:href="#DejaVuSans-6f" transform="translate(602.339844 0)"/>
       <use xlink:href="#DejaVuSans-6d" transform="translate(663.521484 0)"/>
       <use xlink:href="#DejaVuSans-5f" transform="translate(760.933594 0)"/>
       <use xlink:href="#DejaVuSans-62" transform="translate(810.933594 0)"/>
       <use xlink:href="#DejaVuSans-79" transform="translate(874.410156 0)"/>
       <use xlink:href="#DejaVuSans-74" transform="translate(933.589844 0)"/>
       <use xlink:href="#DejaVuSans-65" transform="translate(972.798828 0)"/>
       <use xlink:href="#DejaVuSans-73" transform="translate(1034.322266 0)"/>
      </g>
     </g>
    </g>
   </g>
   <g id="patch_22">
    <path d="M 101.1125 546.534437 
L 101.1125 450.690437 
" style="fill: none; stroke: #000000; stroke-width: 0.8; stroke-linejoin: miter; stroke-linecap: square"/>
   </g>
   <g id="patch_23">
    <path d="M 101.1125 546.534437 
L 697.648515 546.534437 
" style="fill: none; stroke: #000000; stroke-width: 0.8; stroke-linejoin: miter; stroke-linecap: square"/>
   </g>
   <g id="text_56">
    <!-- 3.766x -->
    <g style="fill: #555555" transform="translate(587.885888 472.052239) scale(0.09 -0.09)">
     <use xlink:href="#DejaVuSans-33"/>
     <use xlink:href="#DejaVuSans-2e" transform="translate(63.623047 0)"/>
     <use xlink:href="#DejaVuSans-37" transform="translate(95.410156 0)"/>
     <use xlink:href="#DejaVuSans-36" transform="translate(159.033203 0)"/>
     <use xlink:href="#DejaVuSans-36" transform="translate(222.65625 0)"/>
     <use xlink:href="#DejaVuSans-78" transform="translate(286.279297 0)"/>
    </g>
   </g>
   <g id="text_57">
    <!-- 1.000x -->
    <g style="fill: #555555" transform="translate(237.394037 530.139511) scale(0.09 -0.09)">
     <use xlink:href="#DejaVuSans-31"/>
     <use xlink:href="#DejaVuSans-2e" transform="translate(63.623047 0)"/>
     <use xlink:href="#DejaVuSans-30" transform="translate(95.410156 0)"/>
     <use xlink:href="#DejaVuSans-30" transform="translate(159.033203 0)"/>
     <use xlink:href="#DejaVuSans-30" transform="translate(222.65625 0)"/>
     <use xlink:href="#DejaVuSans-78" transform="translate(286.279297 0)"/>
    </g>
   </g>
   <g id="text_58">
    <!-- UUID from bytes -->
    <g transform="translate(101.1125 446.690437) scale(0.1 -0.1)">
     <defs>
      <path id="DejaVuSans-Bold-62" d="M 2400 722 
Q 2759 722 2948 984 
Q 3138 1247 3138 1747 
Q 3138 2247 2948 2509 
Q 2759 2772 2400 2772 
Q 2041 2772 1848 2508 
Q 1656 2244 1656 1747 
Q 1656 1250 1848 986 
Q 2041 722 2400 722 
z
M 1656 2988 
Q 1888 3294 2169 3439 
Q 2450 3584 2816 3584 
Q 3463 3584 3878 3070 
Q 4294 2556 4294 1747 
Q 4294 938 3878 423 
Q 3463 -91 2816 -91 
Q 2450 -91 2169 54 
Q 1888 200 1656 506 
L 1656 0 
L 538 0 
L 538 4863 
L 1656 4863 
L 1656 2988 
z
" transform="scale(0.015625)"/>
      <path id="DejaVuSans-Bold-79" d="M 78 3500 
L 1197 3500 
L 2138 1125 
L 2938 3500 
L 4056 3500 
L 2584 -331 
Q 2363 -916 2067 -1148 
Q 1772 -1381 1288 -1381 
L 641 -1381 
L 641 -647 
L 991 -647 
Q 1275 -647 1404 -556 
Q 1534 -466 1606 -231 
L 1638 -134 
L 78 3500 
z
" transform="scale(0.015625)"/>
      <path id="DejaVuSans-Bold-74" d="M 1759 4494 
L 1759 3500 
L 2913 3500 
L 2913 2700 
L 1759 2700 
L 1759 1216 
Q 1759 972 1856 886 
Q 1953 800 2241 800 
L 2816 800 
L 2816 0 
L 1856 0 
Q 1194 0 917 276 
Q 641 553 641 1216 
L 641 2700 
L 84 2700 
L 84 3500 
L 641 3500 
L 641 4494 
L 1759 4494 
z
" transform="scale(0.015625)"/>
      <path id="DejaVuSans-Bold-73" d="M 3272 3391 
L 3272 2541 
Q 2913 2691 2578 2766 
Q 2244 2841 1947 2841 
Q 1628 2841 1473 2761 
Q 1319 2681 1319 2516 
Q 1319 2381 1436 2309 
Q 1553 2238 1856 2203 
L 2053 2175 
Q 2913 2066 3209 1816 
Q 3506 1566 3506 1031 
Q 3506 472 3093 190 
Q 2681 -91 1863 -91 
Q 1516 -91 1145 -36 
Q 775 19 384 128 
L 384 978 
Q 719 816 1070 734 
Q 1422 653 1784 653 
Q 2113 653 2278 743 
Q 2444 834 2444 1013 
Q 2444 1163 2330 1236 
Q 2216 1309 1875 1350 
L 1678 1375 
Q 931 1469 631 1722 
Q 331 1975 331 2491 
Q 331 3047 712 3315 
Q 1094 3584 1881 3584 
Q 2191 3584 2531 3537 
Q 2872 3491 3272 3391 
z
" transform="scale(0.015625)"/>
     </defs>
     <use xlink:href="#DejaVuSans-Bold-55"/>
     <use xlink:href="#DejaVuSans-Bold-55" transform="translate(81.201172 0)"/>
     <use xlink:href="#DejaVuSans-Bold-49" transform="translate(162.402344 0)"/>
     <use xlink:href="#DejaVuSans-Bold-44" transform="translate(199.609375 0)"/>
     <use xlink:href="#DejaVuSans-Bold-20" transform="translate(282.617188 0)"/>
     <use xlink:href="#DejaVuSans-Bold-66" transform="translate(317.431641 0)"/>
     <use xlink:href="#DejaVuSans-Bold-72" transform="translate(360.9375 0)"/>
     <use xlink:href="#DejaVuSans-Bold-6f" transform="translate(410.253906 0)"/>
     <use xlink:href="#DejaVuSans-Bold-6d" transform="translate(478.955078 0)"/>
     <use xlink:href="#DejaVuSans-Bold-20" transform="translate(583.154297 0)"/>
     <use xlink:href="#DejaVuSans-Bold-62" transform="translate(617.96875 0)"/>
     <use xlink:href="#DejaVuSans-Bold-79" transform="translate(689.550781 0)"/>
     <use xlink:href="#DejaVuSans-Bold-74" transform="translate(754.736328 0)"/>
     <use xlink:href="#DejaVuSans-Bold-65" transform="translate(802.539062 0)"/>
     <use xlink:href="#DejaVuSans-Bold-73" transform="translate(870.361328 0)"/>
    </g>
   </g>
  </g>
  <g id="text_59">
   <!-- Python 3.14.4 · macOS-26.3.1 · Apple M3 Pro · 10 × 100,000 rounds · 2026-05-13 21:22:48 -->
   <g style="fill: #888888" transform="translate(195.918594 596.398656) scale(0.07 -0.07)">
    <defs>
     <path id="DejaVuSans-50" d="M 1259 4147 
L 1259 2394 
L 2053 2394 
Q 2494 2394 2734 2622 
Q 2975 2850 2975 3272 
Q 2975 3691 2734 3919 
Q 2494 4147 2053 4147 
L 1259 4147 
z
M 628 4666 
L 2053 4666 
Q 2838 4666 3239 4311 
Q 3641 3956 3641 3272 
Q 3641 2581 3239 2228 
Q 2838 1875 2053 1875 
L 1259 1875 
L 1259 0 
L 628 0 
L 628 4666 
z
" transform="scale(0.015625)"/>
     <path id="DejaVuSans-b7" d="M 684 2619 
L 1344 2619 
L 1344 1825 
L 684 1825 
L 684 2619 
z
" transform="scale(0.015625)"/>
     <path id="DejaVuSans-4f" d="M 2522 4238 
Q 1834 4238 1429 3725 
Q 1025 3213 1025 2328 
Q 1025 1447 1429 934 
Q 1834 422 2522 422 
Q 3209 422 3611 934 
Q 4013 1447 4013 2328 
Q 4013 3213 3611 3725 
Q 3209 4238 2522 4238 
z
M 2522 4750 
Q 3503 4750 4090 4092 
Q 4678 3434 4678 2328 
Q 4678 1225 4090 567 
Q 3503 -91 2522 -91 
Q 1538 -91 948 565 
Q 359 1222 359 2328 
Q 359 3434 948 4092 
Q 1538 4750 2522 4750 
z
" transform="scale(0.015625)"/>
     <path id="DejaVuSans-53" d="M 3425 4513 
L 3425 3897 
Q 3066 4069 2747 4153 
Q 2428 4238 2131 4238 
Q 1616 4238 1336 4038 
Q 1056 3838 1056 3469 
Q 1056 3159 1242 3001 
Q 1428 2844 1947 2747 
L 2328 2669 
Q 3034 2534 3370 2195 
Q 3706 1856 3706 1288 
Q 3706 609 3251 259 
Q 2797 -91 1919 -91 
Q 1588 -91 1214 -16 
Q 841 59 441 206 
L 441 856 
Q 825 641 1194 531 
Q 1563 422 1919 422 
Q 2459 422 2753 634 
Q 3047 847 3047 1241 
Q 3047 1584 2836 1778 
Q 2625 1972 2144 2069 
L 1759 2144 
Q 1053 2284 737 2584 
Q 422 2884 422 3419 
Q 422 4038 858 4394 
Q 1294 4750 2059 4750 
Q 2388 4750 2728 4690 
Q 3069 4631 3425 4513 
z
" transform="scale(0.015625)"/>
     <path id="DejaVuSans-2d" d="M 313 2009 
L 1997 2009 
L 1997 1497 
L 313 1497 
L 313 2009 
z
" transform="scale(0.015625)"/>
     <path id="DejaVuSans-41" d="M 2188 4044 
L 1331 1722 
L 3047 1722 
L 2188 4044 
z
M 1831 4666 
L 2547 4666 
L 4325 0 
L 3669 0 
L 3244 1197 
L 1141 1197 
L 716 0 
L 50 0 
L 1831 4666 
z
" transform="scale(0.015625)"/>
     <path id="DejaVuSans-4d" d="M 628 4666 
L 1569 4666 
L 2759 1491 
L 3956 4666 
L 4897 4666 
L 4897 0 
L 4281 0 
L 4281 4097 
L 3078 897 
L 2444 897 
L 1241 4097 
L 1241 0 
L 628 0 
L 628 4666 
z
" transform="scale(0.015625)"/>
     <path id="DejaVuSans-d7" d="M 4488 3438 
L 3059 2003 
L 4488 575 
L 4116 197 
L 2681 1631 
L 1247 197 
L 878 575 
L 2303 2003 
L 878 3438 
L 1247 3816 
L 2681 2381 
L 4116 3816 
L 4488 3438 
z
" transform="scale(0.015625)"/>
     <path id="DejaVuSans-2c" d="M 750 794 
L 1409 794 
L 1409 256 
L 897 -744 
L 494 -744 
L 750 256 
L 750 794 
z
" transform="scale(0.015625)"/>
     <path id="DejaVuSans-3a" d="M 750 794 
L 1409 794 
L 1409 0 
L 750 0 
L 750 794 
z
M 750 3309 
L 1409 3309 
L 1409 2516 
L 750 2516 
L 750 3309 
z
" transform="scale(0.015625)"/>
    </defs>
    <use xlink:href="#DejaVuSans-50"/>
    <use xlink:href="#DejaVuSans-79" transform="translate(60.302734 0)"/>
    <use xlink:href="#DejaVuSans-74" transform="translate(119.482422 0)"/>
    <use xlink:href="#DejaVuSans-68" transform="translate(158.691406 0)"/>
    <use xlink:href="#DejaVuSans-6f" transform="translate(222.070312 0)"/>
    <use xlink:href="#DejaVuSans-6e" transform="translate(283.251953 0)"/>
    <use xlink:href="#DejaVuSans-20" transform="translate(346.630859 0)"/>
    <use xlink:href="#DejaVuSans-33" transform="translate(378.417969 0)"/>
    <use xlink:href="#DejaVuSans-2e" transform="translate(442.041016 0)"/>
    <use xlink:href="#DejaVuSans-31" transform="translate(473.828125 0)"/>
    <use xlink:href="#DejaVuSans-34" transform="translate(537.451172 0)"/>
    <use xlink:href="#DejaVuSans-2e" transform="translate(601.074219 0)"/>
    <use xlink:href="#DejaVuSans-34" transform="translate(632.861328 0)"/>
    <use xlink:href="#DejaVuSans-20" transform="translate(696.484375 0)"/>
    <use xlink:href="#DejaVuSans-b7" transform="translate(728.271484 0)"/>
    <use xlink:href="#DejaVuSans-20" transform="translate(760.058594 0)"/>
    <use xlink:href="#DejaVuSans-6d" transform="translate(791.845703 0)"/>
    <use xlink:href="#DejaVuSans-61" transform="translate(889.257812 0)"/>
    <use xlink:href="#DejaVuSans-63" transform="translate(950.537109 0)"/>
    <use xlink:href="#DejaVuSans-4f" transform="translate(1005.517578 0)"/>
    <use xlink:href="#DejaVuSans-53" transform="translate(1084.228516 0)"/>
    <use xlink:href="#DejaVuSans-2d" transform="translate(1147.705078 0)"/>
    <use xlink:href="#DejaVuSans-32" transform="translate(1183.789062 0)"/>
    <use xlink:href="#DejaVuSans-36" transform="translate(1247.412109 0)"/>
    <use xlink:href="#DejaVuSans-2e" transform="translate(1311.035156 0)"/>
    <use xlink:href="#DejaVuSans-33" transform="translate(1342.822266 0)"/>
    <use xlink:href="#DejaVuSans-2e" transform="translate(1406.445312 0)"/>
    <use xlink:href="#DejaVuSans-31" transform="translate(1438.232422 0)"/>
    <use xlink:href="#DejaVuSans-20" transform="translate(1501.855469 0)"/>
    <use xlink:href="#DejaVuSans-b7" transform="translate(1533.642578 0)"/>
    <use xlink:href="#DejaVuSans-20" transform="translate(1565.429688 0)"/>
    <use xlink:href="#DejaVuSans-41" transform="translate(1597.216797 0)"/>
    <use xlink:href="#DejaVuSans-70" transform="translate(1665.625 0)"/>
    <use xlink:href="#DejaVuSans-70" transform="translate(1729.101562 0)"/>
    <use xlink:href="#DejaVuSans-6c" transform="translate(1792.578125 0)"/>
    <use xlink:href="#DejaVuSans-65" transform="translate(1820.361328 0)"/>
    <use xlink:href="#DejaVuSans-20" transform="translate(1881.884766 0)"/>
    <use xlink:href="#DejaVuSans-4d" transform="translate(1913.671875 0)"/>
    <use xlink:href="#DejaVuSans-33" transform="translate(1999.951172 0)"/>
    <use xlink:href="#DejaVuSans-20" transform="translate(2063.574219 0)"/>
    <use xlink:href="#DejaVuSans-50" transform="translate(2095.361328 0)"/>
    <use xlink:href="#DejaVuSans-72" transform="translate(2153.914062 0)"/>
    <use xlink:href="#DejaVuSans-6f" transform="translate(2192.777344 0)"/>
    <use xlink:href="#DejaVuSans-20" transform="translate(2253.958984 0)"/>
    <use xlink:href="#DejaVuSans-b7" transform="translate(2285.746094 0)"/>
    <use xlink:href="#DejaVuSans-20" transform="translate(2317.533203 0)"/>
    <use xlink:href="#DejaVuSans-31" transform="translate(2349.320312 0)"/>
    <use xlink:href="#DejaVuSans-30" transform="translate(2412.943359 0)"/>
    <use xlink:href="#DejaVuSans-20" transform="translate(2476.566406 0)"/>
    <use xlink:href="#DejaVuSans-d7" transform="translate(2508.353516 0)"/>
    <use xlink:href="#DejaVuSans-20" transform="translate(2592.142578 0)"/>
    <use xlink:href="#DejaVuSans-31" transform="translate(2623.929688 0)"/>
    <use xlink:href="#DejaVuSans-30" transform="translate(2687.552734 0)"/>
    <use xlink:href="#DejaVuSans-30" transform="translate(2751.175781 0)"/>
    <use xlink:href="#DejaVuSans-2c" transform="translate(2814.798828 0)"/>
    <use xlink:href="#DejaVuSans-30" transform="translate(2846.585938 0)"/>
    <use xlink:href="#DejaVuSans-30" transform="translate(2910.208984 0)"/>
    <use xlink:href="#DejaVuSans-30" transform="translate(2973.832031 0)"/>
    <use xlink:href="#DejaVuSans-20" transform="translate(3037.455078 0)"/>
    <use xlink:href="#DejaVuSans-72" transform="translate(3069.242188 0)"/>
    <use xlink:href="#DejaVuSans-6f" transform="translate(3108.105469 0)"/>
    <use xlink:href="#DejaVuSans-75" transform="translate(3169.287109 0)"/>
    <use xlink:href="#DejaVuSans-6e" transform="translate(3232.666016 0)"/>
    <use xlink:href="#DejaVuSans-64" transform="translate(3296.044922 0)"/>
    <use xlink:href="#DejaVuSans-73" transform="translate(3359.521484 0)"/>
    <use xlink:href="#DejaVuSans-20" transform="translate(3411.621094 0)"/>
    <use xlink:href="#DejaVuSans-b7" transform="translate(3443.408203 0)"/>
    <use xlink:href="#DejaVuSans-20" transform="translate(3475.195312 0)"/>
    <use xlink:href="#DejaVuSans-32" transform="translate(3506.982422 0)"/>
    <use xlink:href="#DejaVuSans-30" transform="translate(3570.605469 0)"/>
    <use xlink:href="#DejaVuSans-32" transform="translate(3634.228516 0)"/>
    <use xlink:href="#DejaVuSans-36" transform="translate(3697.851562 0)"/>
    <use xlink:href="#DejaVuSans-2d" transform="translate(3761.474609 0)"/>
    <use xlink:href="#DejaVuSans-30" transform="translate(3797.558594 0)"/>
    <use xlink:href="#DejaVuSans-35" transform="translate(3861.181641 0)"/>
    <use xlink:href="#DejaVuSans-2d" transform="translate(3924.804688 0)"/>
    <use xlink:href="#DejaVuSans-31" transform="translate(3960.888672 0)"/>
    <use xlink:href="#DejaVuSans-33" transform="translate(4024.511719 0)"/>
    <use xlink:href="#DejaVuSans-20" transform="translate(4088.134766 0)"/>
    <use xlink:href="#DejaVuSans-32" transform="translate(4119.921875 0)"/>
    <use xlink:href="#DejaVuSans-31" transform="translate(4183.544922 0)"/>
    <use xlink:href="#DejaVuSans-3a" transform="translate(4247.167969 0)"/>
    <use xlink:href="#DejaVuSans-32" transform="translate(4280.859375 0)"/>
    <use xlink:href="#DejaVuSans-32" transform="translate(4344.482422 0)"/>
    <use xlink:href="#DejaVuSans-3a" transform="translate(4408.105469 0)"/>
    <use xlink:href="#DejaVuSans-34" transform="translate(4441.796875 0)"/>
    <use xlink:href="#DejaVuSans-38" transform="translate(4505.419922 0)"/>
   </g>
  </g>
 </g>
 <defs>
  <clipPath id="p63f23db1b5">
   <rect x="101.1125" y="18.798437" width="596.536015" height="95.844"/>
  </clipPath>
  <clipPath id="p907a52ad5e">
   <rect x="101.1125" y="162.762438" width="596.536015" height="95.844"/>
  </clipPath>
  <clipPath id="p5b81461b11">
   <rect x="101.1125" y="306.726438" width="596.536015" height="95.844"/>
  </clipPath>
  <clipPath id="pbdf1561ec5">
   <rect x="101.1125" y="450.690437" width="596.536015" height="95.844"/>
  </clipPath>
 </defs>
</svg>
